<?xml version="1.0" encoding="UTF-8"?>
<!DOCTYPE svg PUBLIC "-//W3C//DTD SVG 1.1//EN" "http://www.w3.org/Graphics/SVG/1.1/DTD/svg11.dtd">
<!-- Creator: CorelDRAW 2017 -->
<svg xmlns="http://www.w3.org/2000/svg" xml:space="preserve" width="52.2387mm" height="38.742mm" version="1.1" style="shape-rendering:geometricPrecision; text-rendering:geometricPrecision; image-rendering:optimizeQuality; fill-rule:evenodd; clip-rule:evenodd"
viewBox="0 0 2011.57 1491.85"
 xmlns:xlink="http://www.w3.org/1999/xlink">
 <defs>
  <style type="text/css">
   <![CDATA[
    .fil0 {fill:#BDBFC1}
   ]]>
  </style>
 </defs>
 <g id="Capa_x0020_1">
  <metadata id="CorelCorpID_0Corel-Layer"/>
  <g id="_2285531809024">
   <path class="fil0" d="M992.69 1131.38c9.6,13.13 18.92,26.29 28.2,39.13 10.76,14.92 89.28,116.01 92.45,131.17 -8.46,10.66 -79.15,48.63 -97.37,54.23 -4.56,-13.85 -4.88,-6.68 -13.24,-36.04l-32.94 -118.6c-4.26,-16.22 -8.91,-32.49 -13.65,-48.78 -1.55,0.8 -3.11,1.59 -4.67,2.38 20,69.33 47.88,158.06 54.4,206.61 -35.73,10.45 -61.26,27.46 -111.84,35.01 -11.19,-16.12 -31.1,-120.41 -37.99,-149.37 -2.15,-9.06 -7.56,-30.14 -13.48,-53.83 -1.4,0.3 -2.78,0.62 -4.19,0.91 4.31,18.55 8.83,36.75 12.96,55.25 4.8,21.52 35.07,135.1 32.24,147.31 -1.98,3.28 -7.72,4.28 -13.55,5.28 -4.85,0.83 -10.42,1.61 -15.8,2.52 -16.22,2.75 -15.76,3.47 -27.85,-3.27 -0.34,-2.23 -2.02,-12.4 -1.78,-14.16 0.86,-6.57 -1.65,-2.41 6.58,-7.65 0.29,-0.18 1.05,-0.45 1.48,-0.82l-6.84 -26.69c-0.25,-0.56 -0.53,-1.14 -0.8,-1.66 -2.09,-3.98 -0.91,-2.11 -3.25,-4.55l-9.06 0.57c-4.64,6.34 -5.17,12.69 -6.33,21.73 -2.51,19.53 -1.33,10.05 7.54,17.4l0.86 15.84c-16.93,11.84 -1.7,7.59 -17.25,10.21 -6.55,1.11 -19.64,1 -27,1.17 1.07,-12.08 -0.95,-19 0.76,-32.38 1.52,-11.9 2.58,-22.85 3.89,-34.88 2.41,-22.26 10.84,-91.29 16.33,-144.12 -2.16,0.21 -4.34,0.39 -6.52,0.58 -7.34,79.39 -14.37,187.14 -26.62,210.96 -33.18,3.15 -84.28,-2.62 -116.91,-7.89 -0.94,-36.06 4.65,-94.97 11.02,-130.73 2.41,-15.91 5.49,-45.7 8.72,-78.53 -1.8,-0.34 -3.6,-0.67 -5.4,-1.04l-8.36 82.12c-6.65,33.39 -6.25,100.58 -18.11,125.75 -40.88,-2.17 -97.84,-27.49 -127.27,-35.01 6.69,-26.22 64.5,-122.19 101.64,-186.53 -2.08,-0.68 -4.15,-1.36 -6.21,-2.06 -33.12,59.65 -79.6,146.4 -95.28,169.97 -3.92,5.88 -7.45,8.51 -11.01,13.27 -49.05,-16.54 -78.73,-42.66 -111.2,-57.75 6.47,-29.18 22.61,-36.84 24.44,-51.93 8.79,-6.52 25.08,-37.02 31.2,-47.26l49.94 -82.91c-1.82,-1.27 -3.65,-2.53 -5.46,-3.82 -34.28,56.51 -74.17,122.82 -77.05,132.71 -5.61,3.9 -11.81,16.69 -15.82,23.48 -8.06,13.64 -6.8,13.61 -18.18,21.8 -15.31,-10.45 -63.62,-46.69 -71.76,-58.18 5.95,-7.47 13.4,-17.5 21.11,-23.37 6.03,-4.59 21.96,-17.06 24.09,-22.27 11.35,-3.84 25.15,-19.24 35.2,-27.09l77.95 -65.83c-1.63,-1.34 -3.23,-2.7 -4.84,-4.05l-0.18 0.15 -108.17 92.21c-17.2,15.47 -33.42,30.49 -54.98,41.63 -19.55,-17.46 -66.32,-67.01 -76.43,-86.69 10.86,-8.02 10.19,-11.39 19.89,-20.07 8.86,-7.94 14.87,-12.65 22.47,-19.95 9.93,-4.32 72.47,-61.07 86.81,-72.2 7.29,-5.66 14.15,-11.35 21.19,-17.36l8.23 -6.99c-1.31,-1.88 -2.61,-3.76 -3.89,-5.66 -1.04,0.9 -2.04,1.79 -2.98,2.66 -18.46,17.22 -37.71,31.59 -56.42,47.75 -10.21,8.82 -17.96,15.54 -28.24,23.85 -8.68,7.03 -21.24,17.83 -27.55,24.82 -5.38,3.3 -17.29,13.94 -22.11,18.31l-25.39 16.25c-12.6,-23.88 -51.08,-72.4 -62.3,-108.88 19.83,-14.92 134.36,-49.31 166.99,-60.63l30.73 -10.34c-0.87,-1.7 -1.71,-3.42 -2.55,-5.13l-26.93 9.45c-5.52,2.57 -2.92,1.39 -5.01,2.82 -30.54,3.53 -136.86,53.25 -169.49,51.71 -12.54,-33.09 -23.4,-55.34 -32.3,-92.03 12.27,-13.51 39.71,-12.4 54.34,-24.37 24.98,-5.93 92.79,-29.48 143.63,-46.96 -0.41,-1.78 -0.79,-3.58 -1.19,-5.37 -19.5,6.4 -39.1,12.5 -47.7,15.41l-90.97 31.73c-3.13,1.69 -2.71,1.5 -4.64,3.17 -12.98,-0.67 -31.27,11.57 -50.2,12.18l-5.49 -0.3c-0.3,-0.63 -1.22,-0.09 -2.55,-0.12l-12.74 -73.65c22.62,-8.63 137.58,-6.23 171.29,-6.44l39.34 -0.24c-0.39,-2.16 -0.72,-4.32 -1.08,-6.48 -9.89,0.12 -21.59,0.53 -35.9,1.49l-156.49 2.45c-5.53,-0.28 -4.63,-0.1 -9.9,-1.41l-8.72 -3.03c-5.31,-16.85 -5.96,-81.45 -3.64,-101.41 22.31,-6.33 113.99,-4.31 144.49,-4.77 22.02,-0.34 43.73,-0.79 65.43,-1.22 0.1,-1.31 0.21,-2.62 0.32,-3.93 -83.9,2.02 -198.84,3.86 -208.37,-0.14 -5.66,-12.49 7.13,-78.85 10.3,-95.73 27.57,-4.24 96.95,33.34 120.46,32.22l11.51 5.99c4.15,1.51 7.91,2.51 11.93,3.74 7.5,2.29 15.03,5.04 22.2,7.29 12.18,3.8 24.04,7.52 36.23,11.41 0.34,-2.09 0.67,-4.17 1.04,-6.25 -37.69,-12.11 -72.24,-22.93 -80.44,-24.45l-96.45 -31.56c-12.64,-3.98 -22.08,-8.29 -22.97,-16.59 10.23,-26.86 12.58,-52.88 23.42,-76.51l18.15 0.24c5.19,1.12 10.56,3.03 15.48,4.77l168.2 54.36c0.74,-1.86 1.51,-3.7 2.27,-5.55l-130.22 -41.93c-16.31,-4.27 -51.16,-14.6 -65.26,-24.99l1.63 -16.82c6.61,-5.17 25.95,-56.34 36.29,-68.85 16.47,5.76 24.45,13.85 37.34,23.24l133.36 100.46c0.81,-1.64 1.61,-3.28 2.44,-4.91l-46.53 -34.86c-13.68,-10.3 -77.14,-60.08 -86.9,-63.53 -6.3,-9.39 -17.19,-9.33 -33.62,-31.63 7.95,-17.72 46.22,-72.84 57.3,-80.93 6.58,3.4 16.65,7.09 22.69,10.73 41.35,24.91 94.84,62.34 137,89.36 4.21,2.7 10.94,6.84 18.73,11.71 0.95,-1.04 1.92,-2.06 2.88,-3.1 -49.89,-32.1 -130.24,-85.78 -150.97,-98.85l-23.07 -19.48c7.78,-13.27 52.51,-60.53 66.22,-66.61 3.49,6.8 5.49,6.95 10.37,12.19 7.83,8.4 73.75,103.38 111.32,158.38 0.95,-0.95 1.92,-1.88 2.89,-2.82 -23.23,-33.47 -48.45,-71.17 -68.42,-99.48 -9.06,-12.84 -17.39,-24.12 -26.15,-37.24 -14.85,-22.24 -11.09,-11.74 -22.91,-39.13 9.94,-11.95 71.04,-57.97 89.21,-65.49l17.75 18.3c2.81,3.74 5.04,7.28 7.5,10.79 3.25,4.63 2.66,5.46 6.26,6.98 4.45,12.33 45.96,68.45 56.62,83.8l34.94 50.44c1.75,-0.99 3.5,-1.98 5.26,-2.94l-91.81 -130.28c-7.91,-11.59 -21.9,-29.32 -25.21,-44.04 11.38,-8.76 74.73,-37.12 76.99,-40.47l17.57 -1.99c0.21,0.37 0.59,1.02 0.82,1.44 0.44,0.81 1.86,3.72 2.24,4.51 1.74,3.56 2.01,3.79 3.46,7.56l33.13 129.9c4.84,19.32 9.61,38.6 14.48,57.61 1.72,-0.77 3.46,-1.51 5.19,-2.27 -18.11,-70 -44.77,-173.91 -47.96,-206.1 10.97,-8.04 27.76,-11.61 42.12,-14.87l34.05 -9.08c8.53,-2.52 4.22,0.87 9.72,-4.18l14.2 -0.91c2.53,9.68 4.36,8.74 7.31,17.23 1.79,5.14 3.02,12.06 4.48,18.06l42.78 168.32c1.7,-0.28 3.4,-0.58 5.1,-0.84 -18.56,-71.1 -44.72,-166.59 -48.9,-205.42 31.4,-3.69 88.38,-14.42 119.17,-9.95 7.04,18.57 -19.33,164.65 -20.8,210.45 2.04,-0.09 4.09,-0.17 6.13,-0.23 7.29,-54.27 14.81,-180.68 25.08,-210.18 32.57,-2.38 82.65,5.26 114.48,11.03 3.95,34.02 -14.46,125.35 -19.79,163.75 -2.11,15.23 -4.27,30.51 -6.51,45.77 1.38,0.3 2.76,0.59 4.14,0.9 12.08,-86.5 27.38,-191.25 34.47,-207.11 39.61,1.89 96.37,29.17 127.04,38.95 -4.59,24.44 -71.98,124.27 -86.33,146.73 -7.84,12.27 -15.41,24.46 -23.05,36.71 1.61,0.58 3.22,1.16 4.82,1.76 11.04,-17.82 20.02,-32.33 23.5,-37.72l91.24 -141.45c12.82,3.51 58.01,26.93 65.76,34.36 -0.1,13.95 -14.3,33.3 -19.74,47.42 -5.34,7.05 -43.91,83.03 -73.22,141.14 1.95,1.26 3.87,2.54 5.8,3.82 3.56,-6.99 7.05,-13.98 10.43,-20.96 19.48,-40.22 41.82,-83.56 62.2,-123.47 5.17,-11.88 14.62,-35.05 24.33,-41.87 23.79,7.57 81.61,59.2 99.38,73.15 -6.37,14 -17.68,19.57 -26.59,29.04 -7.88,3.1 -21.6,17.54 -29.41,23.37l-26.75 22.99c-6,5 -7.68,5.93 -14.88,12.31 -5.22,4.62 -6.95,5.66 -13.4,11.47 -5.45,4.91 -7.98,5.84 -13.72,11.23 -5.53,5.19 -7.83,6.29 -13.39,11.5 -6.52,6.11 -14.48,12.14 -21.85,18.04 1.6,1.31 3.19,2.63 4.77,3.96 36.02,-31.04 99.91,-81.59 121.85,-102.68 4.5,-4.33 6.08,-5.31 9.34,-9.59 12.57,-7.21 15.76,-17.17 33.3,-22.12 21.43,22.9 69.1,67.88 82.28,94.62 -4.57,6.15 -3.59,6.88 -9.44,11.76l-33.68 26.5c-9.95,3.76 -33.17,22.83 -43.05,30.24l-79.67 59.49c1.22,1.74 2.43,3.48 3.62,5.23l71.35 -53.45c11.49,-8.6 43.63,-30.21 49.69,-39.6 11.77,-3.07 24.48,-21.61 49.31,-30.68 10.43,16.85 42.99,63.29 48.33,83.31 -9.48,9.14 -14.63,9.59 -29.65,14.05l-171 55.06c1,1.73 1.97,3.48 2.95,5.22 62.12,-20.13 164.02,-57.35 204.48,-63.23 9.78,26.15 27.68,57.78 32.83,86.24 -19.29,15.15 -52.92,21.71 -76.87,29.08l-121.67 39.17c0.42,1.41 0.85,2.82 1.26,4.23 20.76,-6.4 38.79,-11.86 47.33,-14.61 35.7,-11.48 124.23,-42.42 154.97,-46.92 2.98,27.79 20.67,68.94 19.55,99.18 -13.23,-0 -23.57,2.55 -39.95,2.18l-172.77 -2.65c0.31,1.54 0.59,3.1 0.89,4.64 86.19,1.01 187.1,2.31 204.26,5.31 12.58,2.19 10.22,-0.37 11.35,15.53 1.73,24.2 4.27,54.13 2.76,77.64 -29.18,12.34 -136.59,-5.66 -173.48,3 -6.08,-3.32 -19.59,-4 -36.93,-3.89 -0.07,2.31 -0.17,4.61 -0.26,6.92l39.67 0.57c31.22,-0.68 150.56,-1.96 170.44,6.99 0.24,27.62 -4.3,60.02 -8.94,86.88 -27.14,2.85 -157.96,-54.23 -180.06,-54.21 -4.18,-4.46 -13.2,-8.21 -23.13,-11.46 -0.26,2.55 -0.57,5.09 -0.87,7.63 7.41,2.37 14.81,4.35 22.08,5.52 6.55,6.08 142.44,45.54 178.83,65.24 -0.35,24.23 -17.67,74.15 -23.82,96.25 -22.76,-2.85 -136.58,-41.7 -201.66,-64.31 -0.48,1.3 -0.99,2.59 -1.48,3.89 58.19,19.21 149.16,50.62 169.5,57.97l28.25 11.9c-3.05,12.35 -20.29,54.4 -27.26,61.43 -18.45,-7.72 -117.1,-73.7 -176.76,-115.5 -0.49,1.18 -1.01,2.35 -1.51,3.52 62.81,41.99 147.18,99.4 158.78,109.22 4.13,3.5 3.25,3.48 6.68,6.97 3.4,3.44 5.13,4.39 7.84,7.52 -8.12,18.46 -37.9,69.29 -49.35,79.87 -10.4,-2.21 -61.67,-39.93 -74.58,-48.31l-99.13 -67.75c-0.97,1.33 -1.93,2.66 -2.91,3.99l28.7 19.39c23.6,16.43 47.74,32.99 71.32,48.68 11.75,7.82 64.86,42.9 70.86,50.16 -4.42,17.54 -64.08,80.65 -80.16,92.7l5.2 -6.68c-6.99,-12.6 -6.58,-7.59 -14.35,-15.89l-111.5 -152.04c-1.29,1.42 -2.61,2.81 -3.92,4.2 34.08,46.05 66.54,89.36 72.56,97.83 9.1,12.79 16.79,22.87 26.84,36.57 11.73,15.98 18.45,31.76 25.16,35.99 -6.95,11.91 -67.87,60.6 -81.63,66.12 -10.57,-6.63 -85.1,-108.68 -126.67,-166.16 -1.16,0.76 -2.31,1.54 -3.48,2.29zm-992.69 -400.31l0 53.11 5.95 4.53c-0.96,12.72 -3.48,-2.36 -3.51,14.86 -0.01,4.75 1.59,13.29 2.18,18.29 1.78,14.99 -0.85,25.48 9.45,30.56 -5.45,15.22 -6.88,-2.43 0.05,34.31 3.27,17.35 1.33,21.22 11.98,30.81 -7.34,8.06 -0.5,19.67 2.79,31.52 3.4,12.26 3.41,24.74 14.84,28.27 -4.74,13.57 3.22,30.79 11.64,49.4 3.74,8.28 3.52,5.28 6.61,9.21 6.87,8.74 -1.76,4.43 5.44,19.36l15.05 30.32c4.42,8.87 2.26,7.2 12.05,10.48 -4.57,13.15 7.94,25.3 18.95,44.61 4.55,7.98 3.48,8.34 13.24,9.68 -1.26,16.74 9.53,23.09 21.88,41.18 8.62,12.64 9.07,8.28 12.87,12.61l1.83 2.75c8.11,14.47 -3.89,0.4 16.61,23.53 7.28,8.21 11.41,20.32 26.54,20.95 -0.97,13.76 2.76,13.09 11.19,20.58 8.14,7.23 17.66,18.56 26.29,23.32 8.62,4.75 25.08,29.8 50.92,41.83 5.07,2.36 37.26,38.13 58.33,36.66 6.6,13.21 3.46,8.75 23.64,19.69 11.89,6.45 17.98,13.17 32.95,12.43 4.4,12.23 -4.84,3.57 25.33,17.6 9.85,4.58 21.87,12.88 31.41,7.77 9.71,9.99 -5.76,4.7 26.64,15.41 13.82,4.57 20.59,11.84 34.34,6.95 9.71,11.11 26.87,13.78 47.49,18.19 9.18,1.97 8.52,0.46 16.01,-2.48 4.57,10.79 3.91,6.8 29.01,11.24 18.54,3.28 20.22,6.66 34.92,-0.57 4.11,10.42 16.08,7.9 28.81,8.91 17.98,1.43 21.61,4.27 34.06,-3.37l3.92 6.29 52.96 0c2.55,-2.32 3.9,-3.75 6.38,-6.18 5.28,4.78 0.71,6.17 24.93,3.58 7.82,-0.84 21.95,-1.51 28.92,-3.17 5.58,-1.34 7.68,-3.52 8.76,-3.82 5.18,-1.45 2.81,0.59 9.75,1.24 16.5,1.53 53.62,-13.01 59.58,-12.68 14.69,0.81 19.63,-3.43 36.3,-7.6 12.75,-3.18 15.19,-1.54 19.89,-11.67 13.47,5.62 17.16,0.73 46.41,-10.42 0.91,-0.35 3.99,-1.42 4.94,-1.89l2.98 -1.62c0.42,-0.27 0.93,-0.7 1.33,-0.99 0.39,-0.29 0.85,-0.79 1.24,-1.08 10.78,-8.31 2.71,2.13 33.77,-13.49 17.98,-9.05 12.26,-2.96 26.1,-14.81 5.11,-4.38 -0.46,-1.32 5.64,-3.31 26.99,-8.81 8.91,-2.43 35.12,-16.94 12.03,-6.66 12.61,-4.2 16.74,-16.8 12.7,3.4 18.66,-5.51 28.56,-12.58 9.62,-6.87 21.42,-10.05 23.32,-23.93 10.06,1.31 8,2.39 14.76,-3.5 17.53,-15.26 33.59,-23.34 34.48,-37.95 11.55,0.95 10.52,0.08 16.64,-6.18 15.74,-16.09 28.9,-24.03 28.84,-39.11 13.56,0.44 10.25,-2.07 25.33,-19.92 4.72,-5.59 6.72,-7.67 10.43,-12.19 5.93,-7.22 6.03,-5.04 5.97,-16.69 13.61,-0.27 14.32,-10.22 31.68,-33.94 8.22,-11.22 2.97,-11.53 8.95,-17.94 8.12,-8.69 0.42,6.18 16.31,-22.43 6.35,-11.43 13.78,-17.39 12.86,-32.66 12.52,-5.88 12.44,-13.48 17.67,-25.16 5.08,-11.34 13.14,-19.65 9.37,-31.43 9.04,-8.56 4.76,3.06 15.71,-27.19 4.61,-12.73 10.76,-21.52 6.77,-33.93 12.03,-8.85 9.89,-15.48 17.26,-41.85 4.56,-16.33 -0.82,-14.11 2.66,-21.72 5.05,-11.02 3.06,0.83 7.44,-24.58 2.86,-16.59 4.95,-15.88 3.45,-30.98 -0.07,-0.74 -0.47,-2.81 -0.45,-3.48 0.19,-7.18 2.71,-1.91 4.92,-13.57 1.37,-7.25 1.83,-19.11 2.63,-26.9 2.12,-20.52 0.8,-13.19 -3.5,-26.87l6.38 -3.22 0 -76.18c-4,-9.65 -1.47,-25.27 -4.44,-36.38 -2.52,-9.41 -5.29,-6.35 -4.65,-12.33 0.56,-5.17 3.08,-1.32 1.89,-13.88 -0.86,-9.04 -3.97,-24.34 -5.77,-33.22 -2.36,-11.64 -4.74,-9.62 -5.92,-14 -0.02,-0.08 0.65,-28.73 -10.32,-53.63 -13.09,-29.7 -4.76,3.43 -5.67,-17.46 -0.4,-9.24 -5.87,-19.18 -9.2,-28.64 -5.16,-14.63 -3.16,-16.15 -14.33,-23.28 4.13,-12.08 -8.93,-36.3 -15.52,-48.67 -4.35,-8.16 -7.23,-5.8 -9.12,-12.63 -1.76,-6.34 2.13,-3.04 -4.48,-14.43 -3.43,-5.91 -5.08,-9.02 -8.23,-14.54 -6.43,-11.28 -7.78,-20.75 -20.37,-23.17 2.6,-14.69 -5.9,-20.64 -13.45,-31.28 -6.97,-9.81 -9.37,-19.92 -21.62,-21.75 -0.57,-11.84 0.4,-8.91 -5.65,-16.59l-20.36 -24.95c-6.12,-7.35 -2.81,-7.33 -14.44,-8.5 -2.03,-14.61 -3.83,-12.61 -19.06,-28.19 -9.09,-9.3 -11.74,-17.44 -26.76,-18.06 0.13,-14.37 -4.47,-11.72 -13.92,-20.49 -21.54,-20.01 -11.23,-11.5 -29.48,-22.15 -6.14,-3.59 -3.16,-6.44 -25.78,-22.2 -5.38,-3.75 -14.44,-11.36 -20.47,-13.79 -22.55,-9.11 -2.71,-3.56 -19.62,-14 -11.57,-7.14 -29.94,-21.71 -44.88,-20.58 -4.89,-9.76 -0.12,-6.4 -11.16,-11.71l-30.72 -14.69c-10.39,-4.79 -9.72,-1.23 -14.33,-2.85 -5.06,-1.78 0.94,1.37 -3.27,-2.26 -0.44,-0.38 -1.53,-1.84 -2,-2.26 -4.89,-4.43 -43.25,-21.44 -55.84,-17.19 -5.58,-8.44 -0.93,-6.03 -12.38,-9.66 -17.88,-5.68 -37.31,-12.9 -49.15,-8.44 -10.37,-11.02 -14.71,-8.62 -30.76,-11.57 -33.24,-6.13 -22.57,-2.13 -30.7,-2.53 -7.8,-0.39 -0.58,-3.2 -15.4,-5.46 -5.74,-0.87 -12.34,-1.07 -18.33,-1.72 -38.74,-4.24 -17.98,-0.81 -33.34,1.35l-3.82 -6.3 -85.89 0c-0.63,0.28 -1.42,0.51 -1.95,0.65l-10.72 1.97c-27.42,2.43 -16.73,6.48 -27.33,4.51 -16.85,-3.13 -42.98,4.43 -58.08,9.41 -9.63,3.17 -2.3,-2.07 -17.36,0.5 -45.8,7.84 -35.58,15.21 -53.64,15.21 -8.15,0 -10.82,2.23 -19.1,5.07l-26.94 9.26c-6.64,3.85 -3.8,3.56 -6.17,5.04 -6.63,4.15 -5.05,-0.99 -16.74,3.57l-33.25 14.47c-11.95,5.98 -3.92,1.6 -10.8,10.82 -10.87,-3.36 -21.62,5.06 -31.24,10.54 -11.39,6.48 -21.19,8.01 -23.61,19.75 -15.11,-1.02 -20.48,6.19 -31.24,13.65 -10.25,7.1 -20.05,8.56 -22.67,22.45 -11.98,-1.97 -8.93,-2.23 -28.64,14.56 -4.67,3.98 -8.01,6.41 -12.72,9.91 -8.99,6.66 -6.13,8.66 -10.37,12.63 -5.17,4.84 -3.59,-0.76 -14.79,9.72 -16.18,15.14 -29.7,21.81 -30.33,37.14 -14.05,-0.45 -10.54,2.41 -18.69,11.24l-21.19 23.96c-6.4,9.51 0.92,6.2 -9.19,13.5 -12.58,9.1 4.21,-4.66 -4.1,2.77l-30.75 41.66c-7.24,11.43 -20.12,21.75 -18.01,38.89 -12.25,1.26 -11.26,6.6 -16.68,16.93 -13.87,26.43 -6.57,8.02 -15.53,34.24 -0.02,0.07 -24.12,36.6 -25.85,54.77 -1.77,18.61 -2.77,2.05 -9.21,18.93 -4.91,12.86 -15.37,37.22 -10.6,48.81 -11.36,10.5 -9.21,13.33 -12.99,29.56 -3.69,15.85 -8.03,20.03 -2.05,34.75 -8.35,3.17 -6.15,0.67 -8.2,11.32 -3.84,19.93 -8.46,38.63 -1.77,50.88 -10.03,7.17 -7.35,17.43 -8.27,31.88 -2.15,33.8 -0.95,20.65 3.5,33.02l-5.86 3.14z"/>
   <path class="fil0" d="M799.6 840.03c24.07,-7.56 43.42,10.01 48.09,28.39 6.48,25.48 -8.61,46.77 -26.87,52.35 -49.03,15 -72.05,-64.77 -21.23,-80.74zm-286.16 64.53l-8.8 28.74c-12.04,29.14 -23.11,50.07 -47.48,71.05 -31.45,27.09 -42.16,28.03 -79.62,38.07l-39.2 0.32c-105.25,-18.38 -156.41,-117.24 -136.16,-208.72 15.43,-69.7 70.25,-121.53 135.67,-129.75 22.88,-2.87 56.84,-1.46 73.74,10.64l-45.06 88.94c-16.7,32.1 -46.13,74.28 -21.63,88.92 21.97,13.13 31.09,-11.51 37.38,-24.02 12.58,-25.09 58.92,-120.53 67.83,-131.11 29.05,13.56 57.86,71.03 63.16,113.9 2.08,16.79 -1.76,42.35 0.17,53.02zm662.22 134.3c-20.16,4.24 -33.31,4.78 -54.89,4.37 -46.94,-10.4 -70.73,-21.19 -95.54,-48.45 -20.66,-22.69 -41.77,-55.78 -45.64,-97.95 35.51,-0.99 72.2,-0.14 107.84,-0.14 29.14,-0 83.55,8.35 67.56,-33.62 -15.26,-40.02 -52.8,-120.4 -62.76,-152.09 12.82,-9.75 55.67,-8.48 72.69,-5.06 140.17,28.21 173.58,223.07 64,305.42 -29.11,21.87 -31.4,16.66 -53.26,27.51zm-195.83 -188.81c2.35,-44.02 42.45,-109.52 72.29,-119.56 3.41,5.13 49.46,110.78 45.86,116.25 -4.28,6.5 -112.59,3.39 -118.15,3.31zm-92.33 -0.02c-2.5,-6.6 -4.86,-12.31 -7.96,-17.51 -10.15,-17 -14.22,-5.26 8.18,-48.64 11.61,-22.5 22.5,-43.96 33.95,-66.12 11.66,-22.57 21.93,-43.46 33.52,-66.43 5.89,-11.67 11.3,-22.01 17.18,-33.82 4.07,-8.18 11.07,-26.94 18.98,-30.37 5.78,6.1 36.62,81.58 40.54,94.11 -18.91,14.24 -20.14,13.34 -37.29,31.01 -38.9,40.09 -55.25,77.96 -64.18,137.83l-42.9 -0.08zm-330.95 -212.14c-28.87,-23.58 -44.72,-28.81 -28.5,-54.88 5.03,-8.08 9.45,-7.73 22.06,-7.72 40.03,0.01 370.32,-2.67 388.62,2.13 1.51,13.84 -17.68,43.52 -24.36,56.55l-53.98 106.84c-6.3,12.51 -20.2,43.38 -27.9,53.12 -16.3,-1.01 -23.31,-4.32 -40.71,-0.13 -14.43,3.47 -20.28,10.14 -30.03,12.97l-205.21 -168.87zm13.6 -111.61c-7.34,-6.84 5,-27.76 2.56,-48.43 -2.42,-20.46 -18.68,-34.73 14.55,-35 40.51,-0.32 81.16,0.14 121.69,0.06 18.88,-0.04 40.73,3.47 46.59,-14.93 6.65,-20.87 -8.03,-31.72 -26.91,-31.73l-182.45 0.06c-20.92,-0.02 -38.59,-1.49 -42.85,17.02 -7.36,31.93 39.31,42.43 15.2,93.47 -22.43,47.47 -65,122.48 -81.59,161.2 -12.86,-2.97 -25,-9.3 -40.82,-12.65 -163.26,-34.49 -290.68,140.38 -231.83,300.26 39.57,107.51 152.78,168 261.5,127.1 132.86,-49.98 176.72,-226.35 97.19,-340.72 -23.64,-33.98 -34.73,-36.79 -48.9,-52.6 20.21,-52.44 33.98,-33.82 63.33,-8.88l197.35 161.34c-6.61,32.18 -13.05,46.67 2.03,78.61 36.11,76.47 140.47,57.36 154.03,-23.74l39.99 -0.05c9.38,144.21 158.52,239.48 284.92,181.82 173.28,-79.05 164.51,-340.02 -2.31,-411.06 -53.32,-22.71 -86.69,-18.78 -141.91,-5.52 -8.71,-19.2 -16.84,-40.03 -25.27,-60.84 -23.25,-57.42 -34.67,-60.27 -18.77,-93.16 6.81,-14.09 9.21,-15.54 26.52,-12.68 30.28,5.01 53.43,14.31 53.49,-23.55 0.06,-35.95 -28.76,-27.51 -59.3,-27.51 -11.61,0 -122.68,-1.08 -128.76,0.85 -10.92,3.47 -12.38,20.13 -4.54,26.6 11.96,9.88 52.34,5.75 67.83,16.37 2.36,12.68 -11.21,35.84 -18.59,38.89 -10.25,4.24 -253.07,1.9 -282.65,1.86 -14.93,-0.02 -104.89,2.67 -111.34,-2.49z"/>
  </g>
  <path class="fil0" d="M1585.73 1356.02c13.34,-51.42 84.7,-37.08 139.95,-37.08 72.88,0 122.63,-13.09 137.35,37.35l-277.3 -0.27zm378.03 -1l0 26.94c-44.6,3.89 -93.65,0.08 -139.73,0.08 -68.46,-0.02 -206.92,7.82 -267.06,-1.63 -0.57,-95.13 75.12,-83.17 109.26,-89.04l-0.05 -415.29c10.39,-7.58 12.57,-4.26 22.3,-8.94l0.1 -38.36c-49.28,-2.38 -143.84,16.01 -126.31,-53.25 11.93,-47.14 110.28,-29.92 158.94,-29.92 44.5,0 144.1,-12.78 162.15,22.26 14.66,28.46 -3.71,53.95 -28.39,59.04 -18.95,3.9 -71.32,1.39 -93.52,1.22l-1.56 39c23.14,8.55 17.07,-5.75 22.66,13.43l0.11 412.39c62.99,1.83 95.91,5.04 107.39,63.31 24.14,0.14 49.38,0.76 73.73,-1.22zm-270.7 -458.72l62.15 -0.47c4.62,29.49 3.66,382.32 -1.38,397.37l-61.74 -0.53 0.96 -396.37zm-104.92 -100.55c-3.1,-32.89 17.72,-24.43 48.11,-24.43l192.25 0c47.69,0 40.39,27.89 13.23,30.91 -22.72,2.53 -64.45,-0 -89.24,0 -38.61,0.01 -141,9.18 -164.36,-6.49z"/>
  <path class="fil0" d="M1706.09 591.69l20.36 0 0 61.1 -20.36 0 0 -61.1zm-33.14 -529.51l34.63 0c37.38,1.69 73.83,8.95 108.72,22.18 57.7,21.88 103.73,58.77 143.41,103.53 18.23,20.57 51.88,70.32 51.88,95.77 0,32.2 -27.21,63.64 -48.37,63.64l-236.75 0 0 42c9.06,0.75 22.96,9.87 27.5,15.78 12.59,16.38 13.23,21.28 13.23,38.95 0,17.11 -20.65,42.88 -40.73,44.55l0 82.74c5.31,0 20.37,-1.94 20.37,7.64l0 84.01c0,6.15 -4.02,10.18 -10.18,10.18l-40.73 0c-4.65,0 -10.18,-3.51 -10.18,-7.64l0 -86.56c0,-9.58 15.05,-7.64 20.37,-7.64l0 -82.74c-16.75,-1.39 -38.06,-22.71 -39.46,-39.46l-161.74 0.08c-5.73,-0.02 -7.62,-0.47 -10.95,-3.05 -16.2,-12.57 -26.9,-64.33 -30.26,-85.57 -0.65,-4.1 -0.99,-10.21 -1.98,-13.3 -1.43,-4.47 -6.27,-5.63 -16.02,-13.25 -3.07,-2.39 -4.64,-4.04 -7.24,-6.76 -2.99,-3.13 -4.02,-5.03 -6.97,-8.31 -2.39,-2.67 -3.96,-4.81 -6.15,-7.84 -16.86,-23.38 -24.72,-42.12 -24.72,-72.02 0,-22.63 19.8,-50.02 40.73,-61.1 0,-12.63 -2.72,-33.79 2.51,-42.04 14.81,-23.34 75.89,-44.65 103.87,-52.69 35.64,-10.24 54.8,-13.63 92.42,-18.32 10.99,-1.37 21.93,-2.3 32.81,-2.78zm12.78 376.77c0,-10.96 6.23,-23.57 17.93,-27.89 8.88,-3.28 16.35,-3.28 25.23,0 33.09,12.2 17.36,71.49 -25.23,55.78 -11.7,-4.32 -17.93,-16.93 -17.93,-27.89zm-19.09 -10.18l-138.74 0 60.78 -61.42c3.66,-3.66 17.59,-20.05 21.96,-20.05l95.47 0 0 42c-16.75,1.39 -38.06,22.71 -39.46,39.46zm-165.16 -3.5c-0.77,-5.81 -3.9,-12.66 -5.41,-18.13 -3.92,-14.2 -12.72,-45.82 -12.72,-59.83l95.47 0 -77.33 77.96zm385.36 -277.8l2.74 0.7 -2.74 -0.7zm0 0l-43.74 -16.08c-49.89,-16.39 -111.31,-18.85 -163,-8.63 -39.41,7.79 -74.91,23.48 -107.94,44.8 -11.53,7.44 -7.64,16.08 -3.14,19 8.55,5.55 16.3,-2.41 21.49,-5.75 82.03,-52.73 179.84,-53.96 269.46,-21.74 12.75,4.59 30.09,12.61 41.61,19.48 21.51,12.84 53.7,35.29 67.26,54.93 17.76,25.71 33.01,58.3 8.71,84.89 -11.04,12.08 -31.61,8.57 -52.53,8.57l-426.41 0c-31.43,0 -29.87,2.46 -46.78,-14.32 -9.88,-9.8 -18.33,-23 -23.98,-37.11 -9.51,-23.77 -9.67,-49.26 8.68,-69.2 2.75,-2.99 4.91,-4.52 8.24,-7.04 24.96,-18.85 51.54,-10.25 56.5,-19.92 3.59,-6.99 1.99,-15.51 -12.8,-15.43 -14.81,0.07 -18.56,3.73 -26.76,3.91l0 -25.46c48.08,-32.2 123.77,-49.52 183.64,-56.93 11.12,-1.38 21.46,-0.56 32.56,-1.81 44.02,-4.94 104.19,7.94 144.39,25.27l22.95 11.41c6.46,3.22 37.42,20.92 41.59,27.14z"/>
 </g>
</svg>
