<?xml version="1.0" encoding="UTF-8"?>
<!DOCTYPE svg PUBLIC "-//W3C//DTD SVG 1.1//EN" "http://www.w3.org/Graphics/SVG/1.1/DTD/svg11.dtd">
<!-- Creator: CorelDRAW 2017 -->
<svg xmlns="http://www.w3.org/2000/svg" xml:space="preserve" width="192.315mm" height="110.067mm" version="1.1" style="shape-rendering:geometricPrecision; text-rendering:geometricPrecision; image-rendering:optimizeQuality; fill-rule:evenodd; clip-rule:evenodd"
viewBox="0 0 18691.16 10697.41"
 xmlns:xlink="http://www.w3.org/1999/xlink">
 <defs>
  <style type="text/css">
   <![CDATA[
    .fil0 {fill:#BDBFC1}
   ]]>
  </style>
 </defs>
 <g id="Capa_x0020_1">
  <metadata id="CorelCorpID_0Corel-Layer"/>
  <g id="_2285670808240">
   <path class="fil0" d="M11385.22 8112.66c68.79,94.17 135.69,188.46 202.16,280.62 77.14,106.96 640.15,831.9 662.95,940.58 -60.69,76.45 -567.54,348.72 -698.23,388.89 -32.65,-99.29 -35.01,-47.94 -94.91,-258.46l-236.2 -850.43c-30.57,-116.27 -63.87,-232.96 -97.86,-349.82 -11.12,5.75 -22.29,11.42 -33.47,17.05 143.43,497.14 343.33,1133.36 390.12,1481.51 -256.18,74.91 -439.29,196.93 -801.99,251.08 -80.23,-115.58 -223.01,-863.43 -272.39,-1071.07 -15.44,-64.94 -54.19,-216.08 -96.66,-386.02 -10.02,2.16 -19.97,4.48 -30.03,6.54 30.91,133.02 63.36,263.51 92.93,396.21 34.4,154.29 251.49,968.77 231.16,1056.28 -14.19,23.55 -55.35,30.68 -97.13,37.84 -34.76,5.96 -74.7,11.54 -113.3,18.08 -116.3,19.73 -113.02,24.84 -199.72,-23.44 -2.45,-15.98 -14.46,-88.94 -12.79,-101.58 6.2,-47.07 -11.8,-17.26 47.2,-54.86 2.08,-1.32 7.54,-3.24 10.59,-5.88l-49.01 -191.36c-1.78,-4 -3.83,-8.18 -5.78,-11.93 -14.97,-28.56 -6.51,-15.18 -23.3,-32.63l-64.99 4.05c-33.25,45.46 -37.06,90.99 -45.38,155.81 -17.98,140.02 -9.52,72.05 54.07,124.74l6.18 113.58c-121.39,84.9 -12.21,54.42 -123.67,73.19 -46.95,7.91 -140.83,7.17 -193.58,8.41 7.69,-86.58 -6.79,-136.25 5.47,-232.15 10.91,-85.31 18.52,-163.88 27.86,-250.07 17.29,-159.61 77.72,-654.64 117.12,-1033.44 -15.54,1.53 -31.16,2.83 -46.76,4.15 -52.65,569.23 -103.03,1341.91 -190.84,1512.72 -237.95,22.61 -604.39,-18.79 -838.34,-56.56 -6.72,-258.56 33.36,-680.98 79,-937.39 17.29,-114.1 39.36,-327.67 62.56,-563.1 -12.93,-2.42 -25.84,-4.84 -38.71,-7.42l-59.92 588.83c-47.67,239.39 -44.81,721.17 -129.86,901.69 -293.17,-15.58 -701.62,-197.13 -912.58,-251.03 47.94,-188.04 462.45,-876.14 728.77,-1337.53 -14.88,-4.87 -29.76,-9.72 -44.54,-14.79 -237.46,427.72 -570.77,1049.78 -683.19,1218.77 -28.07,42.19 -53.4,61.03 -78.91,95.14 -351.7,-118.57 -564.52,-305.87 -797.35,-414.12 46.4,-209.26 162.1,-264.11 175.25,-372.39 63.02,-46.76 179.83,-265.47 223.69,-338.9l358.15 -594.49c-13.08,-9.08 -26.21,-18.11 -39.16,-27.36 -245.82,405.17 -531.82,880.65 -552.5,951.62 -40.26,27.95 -84.66,119.67 -113.43,168.36 -57.8,97.83 -48.79,97.63 -130.34,156.34 -109.79,-74.91 -456.22,-334.79 -514.59,-417.17 42.69,-53.59 96.12,-125.47 151.39,-167.61 43.23,-32.95 157.5,-122.35 172.73,-159.67 81.4,-27.52 180.35,-137.99 252.39,-194.28l558.96 -472.04c-11.65,-9.58 -23.15,-19.35 -34.68,-29.09l-1.32 1.06 -775.64 661.22c-123.32,110.93 -239.66,218.61 -394.26,298.5 -140.2,-125.17 -475.58,-480.54 -548.05,-621.63 77.84,-57.48 73.07,-81.65 142.63,-143.94 63.55,-56.92 106.59,-90.67 161.07,-143.04 71.2,-30.97 519.65,-437.89 622.46,-517.72 52.3,-40.62 101.49,-81.36 151.93,-124.43l59.03 -50.15c-9.36,-13.5 -18.73,-26.98 -27.89,-40.62 -7.44,6.43 -14.6,12.81 -21.35,19.11 -132.38,123.44 -270.39,226.5 -404.56,342.36 -73.22,63.22 -128.81,111.41 -202.48,171.04 -62.26,50.39 -152.29,127.85 -197.53,177.98 -38.55,23.69 -123.99,99.96 -158.57,131.27l-182.05 116.5c-90.34,-171.24 -366.31,-519.16 -446.71,-780.7 142.19,-107.02 963.47,-353.6 1197.43,-434.72l220.39 -74.12c-6.24,-12.17 -12.24,-24.49 -18.33,-36.75l-193.09 67.78c-39.56,18.44 -20.94,9.97 -35.88,20.23 -218.99,25.33 -981.38,381.87 -1215.32,370.78 -89.94,-237.24 -167.81,-396.8 -231.63,-659.9 87.98,-96.87 284.76,-88.87 389.65,-174.71 179.11,-42.54 665.39,-211.37 1029.92,-336.75 -2.97,-12.78 -5.7,-25.66 -8.52,-38.5 -139.84,45.85 -280.36,89.64 -342.04,110.52l-652.31 227.47c-22.4,12.1 -19.41,10.77 -33.26,22.76 -93.11,-4.78 -224.22,82.99 -359.98,87.31l-39.38 -2.19c-2.19,-4.5 -8.79,-0.66 -18.25,-0.86l-91.37 -528.14c162.24,-61.89 986.54,-44.7 1228.26,-46.2l282.1 -1.71c-2.74,-15.44 -5.18,-30.98 -7.71,-46.5 -70.93,0.86 -154.8,3.79 -257.43,10.67l-1122.12 17.59c-39.64,-2.06 -33.21,-0.77 -71.02,-10.11l-62.53 -21.71c-38.09,-120.84 -42.7,-584.08 -26.08,-727.18 159.94,-45.4 817.4,-30.94 1036.05,-34.25 157.88,-2.39 313.55,-5.62 469.19,-8.75 0.7,-9.41 1.49,-18.78 2.26,-28.17 -601.6,14.47 -1425.81,27.66 -1494.12,-1.03 -40.56,-89.56 51.14,-565.4 73.83,-686.43 197.69,-30.37 695.23,239.07 863.8,231.05l82.54 42.97c29.77,10.84 56.71,18 85.52,26.8 53.79,16.43 107.77,36.17 159.21,52.23 87.38,27.28 172.43,53.89 259.81,81.79 2.4,-14.97 4.82,-29.93 7.43,-44.83 -270.23,-86.88 -518.01,-164.47 -576.78,-175.32l-691.58 -226.27c-90.66,-28.54 -158.28,-59.48 -164.73,-118.95 73.36,-192.59 90.22,-379.2 167.94,-548.66l130.13 1.76c37.24,8.05 75.72,21.69 111,34.2l1206.05 389.82c5.32,-13.33 10.8,-26.57 16.28,-39.82l-933.76 -300.7c-116.97,-30.58 -366.87,-104.7 -467.96,-179.19l11.71 -120.64c47.36,-37.07 186.04,-403.97 260.18,-493.67 118.07,41.34 175.33,99.33 267.77,166.6l956.28 720.37c5.83,-11.73 11.54,-23.54 17.5,-35.19l-333.62 -250.01c-98.08,-73.87 -553.16,-430.82 -623.17,-455.5 -45.2,-67.36 -123.24,-66.93 -241.11,-226.82 57,-127.12 331.42,-522.33 410.85,-580.33 47.21,24.4 119.37,50.85 162.69,76.95 296.5,178.62 680.08,447.01 982.35,640.78 30.22,19.37 78.45,49.07 134.31,84 6.79,-7.47 13.76,-14.78 20.62,-22.2 -357.75,-230.15 -933.87,-615.14 -1082.53,-708.84l-165.43 -139.66c55.82,-95.19 376.55,-434.02 474.84,-477.59 25.01,48.78 39.36,49.86 74.34,87.38 56.15,60.22 528.8,741.32 798.2,1135.71 6.85,-6.78 13.79,-13.5 20.7,-20.23 -166.54,-239.96 -347.41,-510.28 -490.58,-713.3 -64.93,-92.07 -124.69,-172.99 -187.48,-267.06 -106.46,-159.48 -79.48,-84.2 -164.27,-280.6 71.29,-85.69 509.38,-415.66 639.69,-469.62l127.26 131.26c20.15,26.83 36.14,52.21 53.79,77.36 23.29,33.19 19.06,39.12 44.92,50.06 31.88,88.39 329.54,490.82 405.99,600.92l250.52 361.65c12.56,-7.08 25.08,-14.18 37.74,-21.1l-658.34 -934.14c-56.68,-83.09 -157.03,-210.28 -180.78,-315.84 81.6,-62.82 535.91,-266.18 552.07,-290.16l126.01 -14.25c1.52,2.67 4.24,7.33 5.87,10.33 3.16,5.81 13.32,26.67 16.09,32.34 12.46,25.56 14.39,27.2 24.79,54.24l237.53 931.42c34.74,138.55 68.94,276.76 103.87,413.12 12.32,-5.54 24.78,-10.87 37.19,-16.26 -129.85,-501.96 -321.03,-1247.06 -343.95,-1477.9 78.64,-57.66 199.09,-83.22 302.06,-106.6l244.13 -65.15c61.21,-18.07 30.27,6.25 69.71,-29.97l101.83 -6.52c18.17,69.41 31.25,62.65 52.44,123.54 12.83,36.87 21.66,86.49 32.14,129.51l306.73 1206.95c12.19,-2.02 24.34,-4.18 36.56,-6.06 -133.07,-509.83 -320.68,-1194.5 -350.64,-1472.95 225.13,-26.48 633.71,-103.44 854.49,-71.33 50.52,133.17 -138.58,1180.64 -149.16,1509.09 14.63,-0.66 29.29,-1.21 43.97,-1.67 52.3,-389.12 106.22,-1295.56 179.87,-1507.13 233.52,-17.08 592.66,37.72 820.87,79.08 28.34,243.94 -103.65,898.79 -141.9,1174.16 -15.16,109.17 -30.63,218.75 -46.67,328.2 9.87,2.17 19.81,4.21 29.65,6.46 86.62,-620.22 196.35,-1371.36 247.16,-1485.08 284.01,13.56 691.05,209.16 910.97,279.32 -32.89,175.21 -516.11,891.09 -619,1052.12 -56.2,87.96 -110.48,175.37 -165.27,263.19 11.57,4.15 23.1,8.34 34.6,12.62 79.17,-127.79 143.52,-231.85 168.52,-270.47l654.23 -1014.3c91.9,25.15 415.96,193.08 471.53,246.35 -0.7,100.04 -102.57,238.75 -141.56,340.03 -38.33,50.58 -314.86,595.35 -525.02,1012.08 13.98,8.98 27.78,18.19 41.61,27.38 25.49,-50.15 50.52,-100.25 74.77,-150.32 139.67,-288.39 299.87,-599.2 446.04,-885.35 37.1,-85.18 104.85,-251.31 174.49,-300.24 170.6,54.31 585.18,424.5 712.6,524.5 -45.65,100.39 -126.79,140.3 -190.68,208.26 -56.54,22.24 -154.87,125.8 -210.87,167.6l-191.83 164.83c-43.03,35.85 -55.04,42.52 -106.68,88.28 -37.42,33.17 -49.85,40.62 -96.09,82.27 -39.1,35.21 -57.22,41.84 -98.36,80.53 -39.62,37.26 -56.16,45.09 -95.99,82.44 -46.72,43.8 -103.81,87.05 -156.67,129.39 11.49,9.38 22.89,18.86 34.25,28.4 258.29,-222.59 716.46,-585.03 873.74,-736.29 32.29,-31.05 43.65,-38.09 67,-68.77 90.11,-51.71 112.98,-123.13 238.75,-158.61 153.64,164.18 495.49,486.7 590.01,678.45 -32.76,44.08 -25.72,49.31 -67.71,84.35l-241.47 190.01c-71.37,26.93 -237.9,163.74 -308.68,216.85l-571.28 426.63c8.74,12.45 17.44,24.94 26,37.52l511.62 -383.3c82.36,-61.64 312.83,-216.64 356.3,-283.93 84.42,-22.01 175.55,-154.91 353.59,-219.98 74.78,120.88 308.3,453.86 346.57,597.41 -67.96,65.55 -104.87,68.78 -212.58,100.73l-1226.19 394.81c7.16,12.4 14.11,24.95 21.12,37.45 445.41,-144.35 1176.11,-411.25 1466.25,-453.36 70.17,187.51 198.51,414.33 235.42,618.39 -138.35,108.65 -379.48,155.71 -551.22,208.55l-872.46 280.83c3.04,10.11 6.08,20.22 9.04,30.37 148.86,-45.88 278.13,-85.08 339.34,-104.77 255.97,-82.35 890.81,-304.18 1111.25,-336.41 21.33,199.29 148.22,494.31 140.16,711.2 -94.91,-0.05 -169.05,18.28 -286.44,15.65l-1238.86 -18.96c2.23,11.05 4.27,22.18 6.38,33.28 618.03,7.22 1341.61,16.6 1464.67,38.07 90.18,15.74 73.24,-2.63 81.38,111.31 12.39,173.53 30.67,388.12 19.85,556.76 -209.23,88.44 -979.46,-40.6 -1243.99,21.53 -43.57,-23.79 -140.45,-28.66 -264.8,-27.85 -0.46,16.57 -1.18,33.05 -1.84,49.58l284.46 4.07c223.84,-4.89 1079.57,-14.06 1222.2,50.07 1.72,198.07 -30.83,430.39 -64.13,623.01 -194.58,20.4 -1132.67,-388.87 -1291.1,-388.71 -30,-32.01 -94.69,-58.89 -165.87,-82.17 -1.89,18.29 -4.07,36.49 -6.25,54.7 53.16,16.98 106.21,31.21 158.31,39.61 46.94,43.55 1021.38,326.54 1282.34,467.82 -2.52,173.75 -126.75,531.73 -170.84,690.17 -163.18,-20.43 -979.34,-299.04 -1445.99,-461.16 -3.43,9.35 -7.09,18.58 -10.59,27.88 417.27,137.75 1069.58,362.96 1215.38,415.64l202.57 85.32c-21.84,88.56 -145.52,390.08 -195.49,440.51 -132.32,-55.37 -839.67,-528.51 -1267.47,-828.19 -3.55,8.44 -7.24,16.8 -10.86,25.21 450.42,301.1 1055.37,712.72 1138.54,783.16 29.58,25.06 23.26,24.94 47.91,49.93 24.35,24.69 36.78,31.49 56.19,53.92 -58.21,132.38 -271.76,496.86 -353.9,572.69 -74.58,-15.85 -442.19,-286.34 -534.82,-346.41l-710.78 -485.81c-6.93,9.55 -13.84,19.13 -20.87,28.6l205.82 139.03c169.27,117.83 342.32,236.53 511.43,349.06 84.25,56.08 465.08,307.6 508.08,359.67 -31.7,125.77 -459.47,578.3 -574.75,664.71l37.27 -47.88c-50.14,-90.32 -47.16,-54.46 -102.91,-113.93l-799.52 -1090.19c-9.26,10.15 -18.69,20.14 -28.08,30.16 244.39,330.18 477.12,640.77 520.3,701.5 65.22,91.73 120.36,163.98 192.49,262.26 84.12,114.61 132.28,227.78 180.45,258.08 -49.86,85.45 -486.63,434.5 -585.34,474.14 -75.77,-47.56 -610.23,-779.28 -908.31,-1191.5 -8.34,5.46 -16.58,11.05 -24.98,16.43zm-7118.17 -2870.42l0 380.78 42.67 32.5c-6.88,91.18 -24.96,-16.94 -25.17,106.58 -0.07,34.08 11.38,95.31 15.65,131.19 12.77,107.49 -6.14,182.67 67.76,219.11 -39.1,109.12 -49.35,-17.43 0.34,245.98 23.47,124.41 9.57,152.17 85.89,220.9 -52.6,57.82 -3.58,141.01 19.98,226.03 24.35,87.89 24.44,177.39 106.44,202.72 -34,97.3 23.09,220.78 83.47,354.19 26.84,59.33 25.21,37.87 47.4,66.09 49.25,62.66 -12.64,31.76 38.98,138.8l107.91 217.41c31.66,63.58 16.2,51.6 86.41,75.13 -32.78,94.32 56.9,181.41 135.86,319.86 32.62,57.2 24.99,59.8 94.94,69.41 -9.08,120.05 68.36,165.59 156.86,295.29 61.82,90.61 65.01,59.39 92.24,90.4l13.11 19.69c58.19,103.77 -27.87,2.9 119.12,168.71 52.2,58.89 81.85,145.75 190.29,150.26 -6.98,98.69 19.79,93.87 80.24,147.54 58.36,51.82 126.66,133.12 188.5,167.22 61.82,34.09 179.8,213.67 365.15,299.94 36.36,16.92 267.2,273.44 418.28,262.86 47.31,94.71 24.81,62.71 169.51,141.17 85.28,46.24 128.93,94.41 236.31,89.15 31.52,87.68 -34.72,25.61 181.63,126.2 70.65,32.84 156.82,92.32 225.27,55.76 69.6,71.65 -41.34,33.68 191,110.46 99.08,32.75 147.61,84.94 246.21,49.88 69.63,79.69 192.71,98.79 340.52,130.41 65.87,14.09 61.09,3.29 114.78,-17.79 32.77,77.34 28.04,48.73 208,80.6 132.95,23.54 144.99,47.78 250.43,-4.1 29.45,74.72 115.34,56.66 206.55,63.92 128.92,10.27 155.01,30.61 244.23,-24.17l28.1 45.09 379.75 0c18.25,-16.63 27.97,-26.88 45.72,-44.28 37.88,34.27 5.11,44.19 178.77,25.64 56.05,-6 157.42,-10.82 207.36,-22.76 40.04,-9.59 55.06,-25.23 62.83,-27.41 37.12,-10.37 20.19,4.25 69.88,8.86 118.29,10.98 384.47,-93.26 427.22,-90.91 105.36,5.79 140.77,-24.64 260.32,-54.48 91.41,-22.82 108.93,-11.05 142.59,-83.68 96.6,40.32 123.05,5.23 332.74,-74.69 6.52,-2.49 28.58,-10.18 35.46,-13.52l21.37 -11.63c3,-1.94 6.69,-5.02 9.53,-7.09 2.83,-2.06 6.14,-5.67 8.85,-7.76 77.31,-59.56 19.48,15.25 242.17,-96.76 128.91,-64.85 87.91,-21.22 187.14,-106.21 36.66,-31.4 -3.33,-9.45 40.44,-23.73 193.52,-63.2 63.9,-17.46 251.81,-121.49 86.27,-47.76 90.45,-30.16 120.05,-120.47 91.03,24.41 133.81,-39.51 204.82,-90.24 68.95,-49.25 153.58,-72.06 167.18,-171.59 72.15,9.37 57.38,17.14 105.84,-25.05 125.73,-109.48 240.88,-167.37 247.21,-272.15 82.82,6.83 75.44,0.55 119.32,-44.31 112.87,-115.36 207.2,-172.35 206.77,-280.45 97.25,3.16 73.5,-14.86 181.65,-142.88 33.83,-40.05 48.18,-55 74.82,-87.41 42.54,-51.75 43.2,-36.13 42.81,-119.67 97.6,-1.92 102.67,-73.28 227.21,-243.39 58.93,-80.47 21.27,-82.71 64.19,-128.69 58.2,-62.34 2.96,44.34 116.92,-160.79 45.53,-81.97 98.8,-124.68 92.22,-234.21 89.81,-42.18 89.22,-96.68 126.7,-180.41 36.42,-81.36 94.23,-140.9 67.19,-225.4 64.82,-61.38 34.09,21.94 112.64,-194.99 33.06,-91.29 77.15,-154.31 48.54,-243.29 86.3,-63.45 70.94,-111.02 123.77,-300.08 32.72,-117.09 -5.89,-101.17 19.09,-155.71 36.2,-79.03 21.93,5.95 53.32,-176.28 20.5,-118.98 35.48,-113.87 24.78,-222.17 -0.53,-5.33 -3.34,-20.18 -3.22,-24.96 1.39,-51.51 19.47,-13.67 35.29,-97.34 9.83,-51.99 13.09,-137.03 18.86,-192.86 15.21,-147.16 5.76,-94.59 -25.09,-192.71l45.72 -23.07 0 -546.28c-28.66,-69.2 -10.51,-181.2 -31.85,-260.89 -18.07,-67.45 -37.98,-45.5 -33.37,-88.39 3.99,-37.07 22.09,-9.49 13.56,-99.54 -6.15,-64.82 -28.48,-174.51 -41.38,-238.16 -16.93,-83.45 -33.99,-69.01 -42.47,-100.42 -0.15,-0.53 4.7,-206.01 -73.97,-384.51 -93.86,-212.96 -34.16,24.61 -40.67,-125.22 -2.89,-66.26 -42.07,-137.56 -65.98,-205.35 -37.01,-104.92 -22.66,-115.76 -102.75,-166.95 29.61,-86.59 -64.01,-260.32 -111.27,-348.98 -31.18,-58.49 -51.87,-41.62 -65.42,-90.53 -12.61,-45.48 15.27,-21.81 -32.12,-103.47 -24.6,-42.38 -36.45,-64.68 -59,-104.29 -46.07,-80.9 -55.81,-148.76 -146.09,-166.1 18.61,-105.33 -42.33,-148.03 -96.48,-224.27 -49.96,-70.33 -67.18,-142.84 -155.03,-155.97 -4.06,-84.95 2.89,-63.93 -40.49,-118.96l-145.98 -178.93c-43.91,-52.75 -20.18,-52.55 -103.57,-60.94 -14.57,-104.78 -27.45,-90.43 -136.71,-202.13 -65.21,-66.65 -84.23,-125.02 -191.89,-129.46 0.96,-103.09 -32.06,-84.02 -99.81,-146.93 -154.48,-143.48 -80.5,-82.47 -211.39,-158.86 -44.03,-25.7 -22.68,-46.15 -184.88,-159.19 -38.53,-26.85 -103.55,-81.41 -146.74,-98.86 -161.72,-65.36 -19.46,-25.51 -140.73,-100.4 -82.96,-51.23 -214.64,-155.65 -321.79,-147.58 -35.09,-69.98 -0.83,-45.93 -80.01,-83.99l-220.32 -105.33c-74.53,-34.32 -69.7,-8.82 -102.74,-20.42 -36.32,-12.75 6.72,9.83 -23.46,-16.25 -3.17,-2.74 -11.01,-13.17 -14.36,-16.2 -35.06,-31.76 -310.11,-153.78 -400.37,-123.3 -40.01,-60.53 -6.68,-43.23 -88.73,-69.28 -128.19,-40.69 -267.5,-92.46 -352.4,-60.48 -74.41,-79.07 -105.49,-61.79 -220.55,-82.99 -238.3,-43.91 -161.86,-15.23 -220.14,-18.16 -55.94,-2.8 -4.18,-22.95 -110.42,-39.13 -41.19,-6.28 -88.5,-7.66 -131.45,-12.35 -277.76,-30.36 -128.92,-5.79 -239.09,9.69l-27.4 -45.18 -615.85 0c-4.5,1.97 -10.2,3.66 -13.97,4.67l-76.84 14.12c-196.6,17.44 -119.98,46.5 -195.98,32.37 -120.8,-22.45 -308.18,31.78 -416.5,67.49 -69.01,22.74 -16.43,-14.87 -124.43,3.62 -328.44,56.22 -255.17,109.06 -384.67,109.09 -58.44,0.01 -77.59,15.95 -136.93,36.37l-193.15 66.37c-47.58,27.58 -27.27,25.52 -44.22,36.13 -47.55,29.74 -36.24,-7.13 -120.02,25.56l-238.41 103.76c-85.72,42.93 -28.11,11.48 -77.44,77.62 -77.94,-24.07 -154.99,36.3 -223.98,75.58 -81.7,46.51 -151.91,57.45 -169.28,141.6 -108.37,-7.3 -146.84,44.38 -224.03,97.86 -73.51,50.92 -143.73,61.39 -162.53,160.98 -85.88,-14.13 -64.03,-15.97 -205.39,104.37 -33.52,28.54 -57.42,45.99 -91.2,71.04 -64.43,47.79 -43.97,62.13 -74.36,90.56 -37.08,34.68 -25.75,-5.49 -106.08,69.68 -116.04,108.57 -212.97,156.39 -217.46,266.36 -100.74,-3.21 -75.59,17.31 -134.04,80.57l-151.96 171.79c-45.91,68.18 6.56,44.42 -65.9,96.8 -90.24,65.25 30.18,-33.37 -29.44,19.88l-220.51 298.78c-51.88,81.94 -144.23,155.98 -129.16,278.88 -87.87,9.03 -80.73,47.34 -119.59,121.41 -99.45,189.48 -47.09,57.54 -111.34,245.5 -0.16,0.47 -172.99,262.44 -185.34,392.68 -12.67,133.49 -19.89,14.71 -66.1,135.73 -35.21,92.19 -110.17,266.89 -76.04,349.98 -81.44,75.28 -66.04,95.56 -93.14,211.93 -26.46,113.63 -57.58,143.66 -14.7,249.17 -59.85,22.73 -44.1,4.79 -58.81,81.21 -27.51,142.9 -60.65,277.03 -12.66,364.84 -71.95,51.42 -52.73,125.01 -59.32,228.61 -15.43,242.34 -6.85,148.03 25.1,236.78l-42.03 22.53z"/>
   <path class="fil0" d="M10000.6 6023.53c172.58,-54.24 311.32,71.77 344.84,203.56 46.46,182.71 -61.74,335.35 -192.64,375.4 -351.55,107.53 -516.68,-464.41 -152.2,-578.95zm-2051.95 462.72l-63.08 206.1c-86.31,208.94 -165.73,359.02 -340.47,509.51 -225.51,194.21 -302.3,200.98 -570.93,272.96l-281.09 2.29c-754.71,-131.78 -1121.55,-840.68 -976.36,-1496.69 110.62,-499.76 503.69,-871.43 972.86,-930.38 164.11,-20.62 407.55,-10.49 528.73,76.3l-323.07 637.76c-119.75,230.19 -330.8,532.62 -155.14,637.62 157.53,94.17 222.98,-82.51 268,-172.27 90.26,-179.92 422.47,-864.27 486.41,-940.13 208.36,97.2 414.88,509.29 452.95,816.73 14.91,120.36 -12.65,303.67 1.21,380.2zm4748.51 963.04c-144.57,30.42 -238.86,34.25 -393.58,31.34 -336.6,-74.53 -507.15,-151.93 -685.09,-347.4 -148.15,-162.73 -299.54,-399.97 -327.28,-702.36 254.62,-7.11 517.69,-1.01 773.26,-1.05 208.94,-0.02 599.13,59.91 484.44,-241.02 -109.39,-286.98 -378.58,-863.34 -449.98,-1090.59 91.89,-69.96 399.19,-60.84 521.2,-36.29 1005.13,202.29 1244.7,1599.56 458.9,2190.07 -208.71,156.83 -225.18,119.49 -381.87,197.3zm-1404.18 -1353.88c16.87,-315.62 304.36,-785.35 518.38,-857.32 24.46,36.77 354.64,794.37 328.83,833.57 -30.67,46.59 -807.33,24.31 -847.22,23.74zm-662.05 -0.13c-17.88,-47.36 -34.87,-88.3 -57.11,-125.52 -72.79,-121.95 -101.98,-37.71 58.62,-348.81 83.27,-161.3 161.37,-315.21 243.45,-474.09 83.6,-161.83 157.24,-311.67 240.32,-476.34 42.21,-83.68 81.01,-157.81 123.18,-242.47 29.22,-58.66 79.41,-193.18 136.08,-217.75 41.47,43.69 262.62,584.98 290.66,674.79 -135.63,102.13 -144.4,95.64 -267.36,222.39 -278.94,287.5 -396.2,559.02 -460.18,988.33l-307.66 -0.53zm-2373.1 -1521.21c-207,-169.1 -320.66,-206.56 -204.35,-393.51 36.07,-57.96 67.77,-55.41 158.17,-55.37 287.05,0.05 2655.44,-19.17 2786.65,15.27 10.79,99.27 -126.79,312.11 -174.68,405.52l-387.08 766.08c-45.17,89.74 -144.84,311.07 -200.06,380.9 -116.84,-7.26 -167.15,-31.01 -291.86,-0.99 -103.47,24.9 -145.41,72.68 -215.33,93l-1471.46 -1210.89zm97.53 -800.31c-52.66,-49 35.87,-199.07 18.34,-347.29 -17.35,-146.69 -133.94,-249.05 104.32,-250.96 290.47,-2.3 581.97,1 872.58,0.43 135.37,-0.27 292.08,24.85 334.11,-107.02 47.68,-149.61 -57.58,-227.43 -192.94,-227.54l-1308.26 0.43c-150,-0.14 -276.69,-10.65 -307.29,122.04 -52.78,228.99 281.88,304.24 108.97,670.25 -160.81,340.4 -466.1,878.28 -585.04,1155.91 -92.19,-21.24 -179.22,-66.7 -292.7,-90.68 -1170.7,-247.35 -2084.31,1006.61 -1662.3,2153.1 283.76,770.9 1095.5,1204.63 1875.08,911.37 952.69,-358.37 1267.22,-1623.06 696.89,-2443.12 -169.47,-243.69 -249,-263.82 -350.64,-377.16 144.92,-376.02 243.66,-242.48 454.09,-63.68l1415.14 1156.89c-47.37,230.77 -93.6,334.62 14.56,563.67 258.91,548.32 1007.24,411.31 1104.51,-170.21l286.69 -0.41c67.31,1034.07 1136.73,1717.25 2043.09,1303.78 1242.47,-566.8 1179.67,-2438.12 -16.56,-2947.51 -382.31,-162.81 -621.61,-134.69 -1017.56,-39.56 -62.43,-137.7 -120.76,-287.05 -181.18,-436.28 -166.73,-411.72 -248.61,-432.17 -134.6,-668.01 48.83,-101.03 66.04,-111.46 190.19,-90.91 217.14,35.94 383.09,102.65 383.55,-168.88 0.44,-257.81 -206.21,-197.23 -425.18,-197.23 -83.24,0 -879.66,-7.73 -923.31,6.11 -78.29,24.83 -88.79,144.32 -32.55,190.77 85.73,70.81 375.34,41.22 486.41,117.39 16.9,90.88 -80.4,257 -133.29,278.88 -73.52,30.39 -1814.63,13.6 -2026.75,13.3 -107.1,-0.16 -752.15,19.15 -798.39,-17.87z"/>
  </g>
  <path class="fil0" d="M15637.61 9723.44c95.61,-368.73 607.31,-265.88 1003.49,-265.92 522.61,0 879.33,-93.87 984.9,267.86l-1988.39 -1.93zm2710.68 -7.17l0 193.16c-319.78,27.85 -671.51,0.6 -1001.92,0.54 -490.92,-0.12 -1483.73,56.12 -1914.97,-11.7 -4.09,-682.14 538.66,-596.37 783.49,-638.47l-0.38 -2977.87c74.49,-54.39 90.11,-30.57 159.87,-64.11l0.68 -275.1c-353.35,-17.08 -1031.4,114.81 -905.69,-381.82 85.58,-338.06 790.77,-214.54 1139.65,-214.54 319.1,0 1033.25,-91.64 1162.68,159.6 105.15,204.09 -26.62,386.87 -203.57,423.32 -135.89,27.99 -511.37,9.96 -670.58,8.75l-11.21 279.67c165.96,61.34 122.38,-41.2 162.51,96.29l0.76 2957.06c451.65,13.14 687.71,36.12 770.02,453.96 173.1,1.04 354.09,5.46 528.65,-8.73zm-1941.04 -3289.26l445.67 -3.36c33.16,211.44 26.24,2741.45 -9.88,2849.36l-442.71 -3.82 6.93 -2842.18zm-752.33 -721.02c-22.24,-235.78 127.07,-175.13 344.98,-175.17l1378.54 0.04c341.96,0 289.64,199.97 94.9,221.66 -162.89,18.14 -462.14,-0.04 -639.88,0.04 -276.87,0.08 -1011.06,65.82 -1178.53,-46.57z"/>
  <path class="fil0" d="M16500.64 4242.75l146.04 0 0 438.1 -146.04 0 0 -438.1zm-237.63 -3796.9l248.28 0c268.03,12.15 529.42,64.17 779.56,159.01 413.73,156.86 743.83,421.44 1028.3,742.37 130.73,147.47 372.01,504.22 372.01,686.75 0,230.9 -195.07,456.36 -346.83,456.36l-1697.65 0 0 301.19c64.92,5.4 164.6,70.8 197.17,113.16 90.26,117.43 94.9,152.58 94.9,279.32 0,122.68 -148.06,307.46 -292.07,319.45l0 593.27c38.1,0 146.04,-13.9 146.04,54.77l0 602.39c0,44.15 -28.87,73.02 -73.02,73.02l-292.07 0c-33.36,0 -73.02,-25.19 -73.02,-54.77l0 -620.64c0,-68.66 107.93,-54.77 146.03,-54.77l0 -593.27c-120.13,-9.99 -272.94,-162.81 -282.94,-282.94l-1159.75 0.61c-41.08,-0.12 -54.63,-3.33 -78.52,-21.88 -116.16,-90.14 -192.86,-461.27 -216.96,-613.62 -4.64,-29.36 -7.1,-73.22 -14.17,-95.35 -10.24,-32.01 -44.96,-40.32 -114.91,-95.01 -21.97,-17.17 -33.25,-28.96 -51.92,-48.48 -21.44,-22.4 -28.85,-36.02 -49.95,-59.58 -17.14,-19.15 -28.44,-34.46 -44.15,-56.25 -120.9,-167.65 -177.25,-301.97 -177.25,-516.42 0,-162.3 141.96,-358.67 292.07,-438.1 0,-90.57 -19.52,-242.28 18.02,-301.44 106.15,-167.31 544.15,-320.15 744.81,-377.83 255.56,-73.44 392.96,-97.73 662.7,-131.36 78.78,-9.83 157.25,-16.48 235.29,-19.94zm91.6 2701.64c0,-78.59 44.67,-169.02 128.59,-199.98 63.72,-23.51 117.2,-23.51 180.92,0 237.22,87.51 124.44,512.61 -180.92,399.97 -83.92,-30.96 -128.59,-121.39 -128.59,-199.99zm-136.91 -73.02l-994.86 0 435.82 -440.38c26.26,-26.26 126.1,-143.75 157.45,-143.75l684.53 0 0 301.19c-120.13,10 -272.94,162.81 -282.94,282.94zm-1184.26 -25.11c-5.55,-41.7 -27.96,-90.79 -38.81,-130.01 -28.14,-101.81 -91.23,-328.52 -91.23,-429.01l684.53 0 -554.49 559.02zm2763.27 -1991.98l19.62 5.02 -19.62 -5.02zm0 0l-313.64 -115.34c-357.72,-117.53 -798.15,-135.16 -1168.79,-61.92 -282.56,55.84 -537.16,168.38 -774.02,321.24 -82.68,53.36 -54.79,115.33 -22.51,136.26 61.31,39.77 116.88,-17.27 154.09,-41.19 588.21,-378.13 1289.56,-386.91 1932.16,-155.87 91.48,32.89 215.8,90.41 298.39,139.71 154.22,92.07 385.08,253.04 482.34,393.88 127.32,184.38 236.7,418.08 62.45,608.69 -79.15,86.59 -226.66,61.45 -376.65,61.45l-3057.6 0c-225.35,0 -214.16,17.62 -335.44,-102.66 -70.83,-70.24 -131.48,-164.9 -171.99,-266.12 -68.2,-170.44 -69.32,-353.22 62.28,-496.22 19.71,-21.42 35.19,-32.44 59.06,-50.46 179,-135.13 369.55,-73.5 405.12,-142.82 25.72,-50.11 14.24,-111.2 -91.8,-110.67 -106.2,0.52 -133.13,26.76 -191.92,28.06l0 -182.54c344.75,-230.85 887.51,-355.07 1316.8,-408.23 79.79,-9.87 153.93,-4.03 233.48,-12.95 315.64,-35.41 747.12,56.88 1035.38,181.2l164.6 81.83c46.35,23.11 268.3,149.98 298.21,194.65z"/>
  <path class="fil0" d="M2199.1 8706.54c-36.69,-29.49 -24.15,-270.47 -24.15,-329 0,-312.05 7.53,-622.08 25.67,-932.86 4.11,-70.5 -0.82,-204.34 39.56,-250.45 107.88,18.58 68.28,230.42 64.89,342.19 -8.07,266.64 -24.25,762.33 -50.9,1018.02 -5.79,55.55 -2.83,146.72 -55.07,152.1zm1074.35 -1653.66l8.14 104.8c-42.86,-2.98 -262.85,-10.3 -289.65,-26.1 -15.24,-8.98 -39.16,-40.39 -39.4,-64.5 -0.95,-95.24 273.43,-53.83 320.9,-14.21zm-679.34 -99.18l-80.01 -13.45c2.52,-43.47 -5.62,-131.98 23.65,-157.67l68.34 5.3c11.1,55.27 -4.33,112.28 -11.98,165.83zm270.92 -236.19c28.17,-2.45 61.36,-10.2 88.98,-4.63 49.08,9.88 6.01,10.81 -0.93,33.13 65.76,72.82 220.65,0.07 258.57,73.68 19.18,37.2 -3.63,20 6.72,46.8 8.73,22.64 9.9,-1.18 27.05,37.43 9.31,20.96 11.15,46.19 13.96,69.22 -465.12,-46.61 -316.72,-26.32 -308.4,-81.27 -10.27,-4.55 -16.42,-4.54 -30.91,-9.35 -14.05,-4.67 -18.27,-1.61 -34.57,-19.08 23.4,-20.82 33.33,-16.9 54.53,-38.05 24.87,-24.79 -7.27,-1.36 5.9,-8.49 -23.34,-25.87 -55.63,-7.02 -91.4,-6.39 20.55,-52.62 24.83,-16.59 60.25,-60.54l-49.74 -32.46zm-499.82 -413.3c-12.66,-47.16 0.52,-86.95 20.18,-119.86 79.44,-0.6 137.5,-0.55 213.78,14.95l-4.5 128.95c-59.8,8.18 -180.3,-3.27 -229.46,-24.04zm-230.41 -83.69c-3.94,-49.27 0.66,-65.94 24.27,-102.76l140.4 4.97c9.02,81.93 -0.48,93.96 -42.02,99.04l-122.65 -1.24zm-795.48 -149.61c9.86,83.31 -1.71,76.01 -76.55,74.79l-705.78 -34.09c-135.13,-10.54 -167.6,4.25 -169.96,-55.87 -0.92,-23.6 4.41,-38.35 10.36,-62.29l941.92 77.46zm988.17 -988.2c-11.72,-68.74 -3.12,-223.69 1.28,-303.44 1.48,-26.69 -0.39,-63.64 14.99,-85.4 79.59,146.46 78,211.29 58.32,410.59l-74.59 -21.75zm176.16 1026.71c-16.55,-33.35 3.13,-111.53 9.37,-147.66 35.57,-205.92 155.89,-952.63 83.86,-1053.19 -14.2,25.51 -63.83,741.42 -105.25,930.34 -10.56,48.22 -20.58,93.1 -31.36,138.49 -6.81,28.68 -35.56,114.01 -36.02,124.23 -5.61,-71.43 40.94,-359.7 57.79,-443.54 30.88,-153.67 42.62,-298.99 47.85,-461.85 6.32,-196.61 20.48,-494.27 -120.01,-646.13 -72.18,-78.01 -70.09,-47.1 -57.29,-194.86 106.05,31.78 208.4,169.67 240.5,300.48 42.81,174.48 53.52,310.28 44.87,498.29 -13.32,289.69 -61.48,693.52 -134.3,955.4zm593.6 -1466.74c29.71,-248.94 323.99,-577.61 477.69,-576.8 54.71,0.3 146.77,52.26 185.25,77.66 62.83,41.45 96.68,75.09 137.68,125.88 76.17,94.36 163.28,292.06 111.21,388.49 -29.25,-39.95 -18.52,-102.76 -64.84,-103.96 -23.89,35.45 6.55,409.87 -45.74,518.75 3.48,-125.39 22.28,-255.75 6.2,-386.04 -7.56,-61.23 -53.3,-250.95 -117.13,-273.08 -10.58,22.97 15.37,189.04 15.36,238.24 -0.06,151.85 -22.63,375.75 -0.05,513.15 10.06,61.25 13.08,52.14 -5.7,108.68 -11.59,34.9 -14.9,62.1 -33.18,90.66 -12.13,-244.31 -87.66,-333.51 -83.71,-620.89 -6.46,5.84 -16.06,4.84 -27.83,45.72 -5.3,18.4 -8.54,38.74 -11.88,57.28 -4.29,23.9 -18.85,95.49 -18.6,110.79 0.8,46.87 29.4,156.7 35.26,221.86 27.28,303.37 -50.46,652.54 -122.48,946.52 -13.28,54.17 -50.38,171.72 -53.2,219.2 -5.63,94.67 46.27,149.56 -0.08,209.87 -46.85,-4.9 -118.05,-34.96 -173.71,-45.93 -38.44,-7.57 -179.44,-15.56 -191.71,-20.35 -60.38,-23.58 -69.18,-58.41 -170.07,-42.98 -38.64,5.91 -130.46,34.83 -142.58,67.15 31.82,12.63 75.91,11.72 116.58,14.77 44.56,3.35 40.25,15.32 78.81,36.51 134.23,73.79 452.77,110.92 345.62,331.64 -39.12,-34.46 -68.36,-136.8 -253.33,-194.6 -124.8,-39.01 -269.41,-35.69 -404.72,-28.86 4.81,-52.59 45.65,-193.46 76.44,-238.37 20.77,-30.28 -0.91,-16.83 34.96,-24 22.64,-4.52 89.09,-2.63 114.39,-1.45 76.59,3.61 136.62,13.77 191.63,50.82 50.37,33.94 28.8,19.03 96.95,17.84 54.98,-0.96 67.6,7.1 98.01,-25.34 -5.49,-21.97 -210.09,-164.97 -260.71,-207.67 -37.97,-32 -239.89,-193.32 -247.58,-222.53 10.04,-155.94 43.59,-278.84 88.52,-415.61 64.41,-196.01 63.04,-172.52 117.29,-385.34 34.39,-134.85 64.01,-263.78 106.94,-394.38 36.12,-109.86 139.56,-323.22 141.41,-354.35 -76.42,10.49 -80.94,119.93 -147.39,171.02zm-1273.68 3415.28c-77.58,-139.23 -38.81,-915.72 -24.39,-1117.92 41.49,-581.68 122.92,-1575.75 214.89,-2131.43 28.83,-174.15 55.13,-323.72 95.87,-491.69 18.42,-75.94 104.05,-410.98 138.74,-445.21 84.29,49.01 51.49,411.94 48.82,533.71 -11.09,504.7 -44.23,901.66 -76.31,1393.21 -2.82,43.25 -5.16,90.66 -9.28,135.58 -4.75,52 -0.88,100.41 -31.24,115.27 -1.61,-1.99 -3.1,-4.83 -3.86,-6.65 -0.75,-1.82 -2.64,-4.54 -3.44,-6.83 -21.06,-60.68 5.96,45.97 -4.37,-14.81l38.21 -475.29c33.71,-349.26 55.45,-907.05 70.08,-1277.02 2.63,-66.63 26.59,-190.73 -15.12,-234.11 -66.28,0.85 -74.94,121.12 -85.04,190.52 -35.94,247 -78.56,476 -110.59,730.05 -93.63,742.41 -175.04,1245.59 -209.05,2018.35 -6.89,156.78 -0.68,1025.07 -33.91,1084.27zm-514.29 -3429.26c-21.04,-169.11 43.99,-329.5 118.01,-441.45 65.08,-98.41 184.69,-247.92 312.89,-251.21 -9.25,59.15 -46.55,155.58 -64.13,220.5 -86.96,321.12 -147.79,724.12 -206,1060.68 -10.38,60.02 -5.97,64.36 -40.77,94.87 -89.06,78.07 -200.99,151.16 -341.71,202.7 -5,-137.96 120.77,-458.11 176.3,-564.1 46.01,-87.83 94.03,-160.86 144.3,-229.73 27.63,-37.86 100.74,-220.77 104.43,-273.35 -62.02,20.01 -104.83,95.42 -153.43,148.23 -2.5,2.71 -25.72,25.23 -26.04,25.45l-23.85 7.41zm532.7 250.47c30.93,-12.32 25.42,-69.41 31.73,-125.18 20.85,-184.4 178.22,-790.74 288.69,-904.28 -17.9,118.22 -59.19,267.8 -87.15,390.81 -71.73,315.59 -173.99,932.45 -207.27,1238.58 -31.08,285.94 -63.83,577.45 -98.98,864.22 -21.08,172.01 -49.83,754.09 -106.99,859.51 -50.17,-86.72 -6.18,-421.93 -14.2,-466.83l-7.63 -21.69c-0.73,-1.81 -2.13,-4.66 -3.67,-6.67 -25.32,17.03 -20.65,25.38 -25.66,96.01 -12.99,183.65 -6.39,409.69 -14.64,604.97 -1.67,39.73 5.6,199.77 -27.26,227.62 -11.61,-44.49 -6.6,-219.14 -21.38,-275.36l-14.54 -30.97c-52.32,139.02 6.07,368.22 -36.74,491.71 -92.01,-216.34 33.41,-1774.89 64.86,-2105.62 25,-262.93 191.5,-1496.9 313.84,-1769.59 21.68,-48.35 24.59,-51.15 56.24,-82.2 -24.38,124.83 -79.73,237.82 -96.84,381.35 -14.68,123.12 -84.1,367.62 -62.27,414.81 45.75,-96.97 91.76,-325.46 121.95,-448.19l105.22 -320.28c11.52,-26.86 47.26,-80.67 48.52,-84.67 2.87,55.58 -268.47,965.82 -205.85,1071.96zm390.31 -1104.13c-206.95,-81.88 -170.51,-49.33 -113.01,-94.64 41.5,-32.71 -5.13,-187.05 120.9,-144 23.39,49.98 -2.4,179.6 -7.89,238.64zm756.09 -289.72c-50.02,28.14 -64.83,314.55 -74,396.51 -14.49,129.34 -38.24,274.72 -67.7,398.33 -35.41,148.6 -134.44,205.75 -241.45,91.56 -67.17,-71.67 -110.66,-191.45 -153.89,-304.93 -61.8,-162.24 21.24,-230.85 97.99,-321.97 63.4,-75.27 159.57,-145.11 256.33,-211.26 89.68,-61.3 189.21,-119.78 286.88,-180.97l282.75 -167.89c11.04,54.91 34,376.53 25.05,425.16 -129.88,-11 -138.3,-240.67 -216.39,-267.15 -115.6,127.46 146.11,276.66 67.52,398.44 -24.59,38.1 -49.76,77.7 -87.7,94.13 -1.21,-135.5 -4.06,-169.89 -28.98,-291.49 -14.06,11.91 -2.94,-2.19 -13.14,15.73 -11.33,19.92 7.48,-24.32 -5.61,12.49l-31.87 215.62c-14.17,73.27 -30.44,156.44 -49.45,230.36 -20.25,78.74 -35.79,144.82 -58.87,221.7 -22.26,74.11 -51.52,146.14 -72.13,212.32l66.24 -346.9c21.87,-101.68 85.39,-513.35 18.46,-619.78zm-1198.08 -66.61c-69.11,19.53 -130.03,74.18 -218.4,55.8 -5.27,-77.42 58.77,-130.99 92.25,-172.99 70.15,-88 58.94,-89.01 36.01,-215.83 50.97,16.06 45.33,33.35 84.31,57.28 102.2,62.74 208.58,12.63 242.05,97.78 61.24,155.83 28.36,143.35 2.27,255.92 -46.25,199.52 15.43,231.01 -161.09,254.11 11.78,-60.28 89.78,-196.23 78.69,-232.9 -37.03,-11.07 -87.22,56.92 -134.11,84.81 -43.12,25.65 -104.99,54.14 -162.87,57.96 -5.31,-98.77 97.56,-124.21 171.41,-159.75 60.51,-29.12 154.9,-121.71 158.75,-178.8 -51.71,8.05 -68.88,26.96 -96.66,53.78 -42.37,40.89 -33.97,26.25 -92.62,42.82zm305.68 -374.54c-3.63,-36.03 0.51,-57.04 13.08,-88.69 63.65,-4.12 275.81,-7.57 312.41,37.65 -30.23,28.42 -140.45,11.5 -207.57,15.51 -57.3,3.43 -47.87,15.2 -50.45,18.51 50.75,27.61 193.73,10.09 253.21,26.62 -38.32,24.04 -273.57,10.68 -320.68,-9.61zm1922.67 4.47c-7.05,-64.48 -83.16,-125.08 -56.32,-169.87 22.05,-36.79 91.26,29.22 177.23,-10.04 58.29,-26.63 48.36,31.29 165.57,-38.32 87.98,-52.24 48.51,-67.75 135.91,-16.59 6.34,186.9 -118.3,300.79 -288.03,323.58 -67.46,9.06 -166.89,50.45 -233.34,73.16 -57.08,19.5 -181.76,67.15 -234.79,72.08 -20.91,-33.18 -51.2,-58.17 -63.64,-114.18 -12.17,-54.78 2.71,-104.97 23.48,-148.24 36.62,-76.32 160.23,-161.45 223.93,-124.3 53.06,62.33 48.07,132.86 150.01,152.73zm-868.73 148.75c81.42,-88.68 52.41,-362.59 280.08,-371.8 2.96,63.18 -41.7,130.44 -8.01,187.57 16.32,-14.04 4.7,0.79 15.05,-21.64l48.3 -145.19 -0.7 150.21c-36.17,14.64 -90.32,60.1 -131.72,88.93 -244.8,170.45 -579.86,328.58 -801.31,491.49 -66.41,48.86 -82.52,80.12 -120.13,99.1 5.68,-76.27 14.7,-148.58 21.97,-223.56 10.93,-113.01 16.57,-97.41 49.16,-179.36 402.54,-11.08 486.45,-283.72 606.84,-329.96 0.92,50.77 -4.97,101.41 -1.05,152.19 2.84,36.9 12.55,79.69 41.51,102.04zm-409.21 -444.01c15.86,-50.04 -14.72,-36.16 40.09,-61.41 184.45,-84.94 124.01,27.89 109.14,93.42 -23.72,104.48 -115.72,155.89 -232.54,174.67 -252.84,40.65 -146.92,-1.78 -246.58,-26.91 -139.7,-35.23 -82.85,15.27 -161.44,-144.83 -32.35,-65.9 -31.68,-84.87 -9.64,-154.39 184.31,85.44 77.06,26.81 185.98,0.47 7.74,86.07 -6.69,141.46 -9.44,222.64 25.14,25.43 78.92,57.83 112.98,76.08 38.28,-16.81 103.24,-65.21 121.23,-105.55 -48.77,-10.88 -66.01,28.59 -87.3,38.7 -18.93,8.98 10.54,0.13 -16.91,4.04l-12.2 -1.47c-9.57,-27.53 10.91,-192.95 20.68,-231.38 94.09,-8.79 96.64,126.97 185.94,115.92zm549.14 -28.31c103.84,-88.11 27.23,-143.04 234.17,-158.86l8.32 18.59c0.94,2.49 3.5,10.3 4.35,12.98 10.81,34.01 23.37,73.57 5.6,97.09 -21.61,28.6 -242.85,31.34 -252.44,30.19zm-2719.54 -118.58c91.09,-45.32 63.32,-47.81 197.81,-90.8 46.88,-14.99 171.48,-57.28 218.68,-55.51 81.34,214.45 8.32,283.65 -36.42,439.4 45.14,59.5 68.57,108.66 95.82,81.94 16.56,-16.22 -0.27,-6.08 -3.97,-56.56 -4.16,-56.76 51.61,-168.34 67.15,-176.73 61.8,-33.37 338.52,112.3 379.65,171.45 28.55,41.06 2.65,103.11 -11.67,140.37 -41.91,-25.97 -64.25,-56.34 -119.78,-85.94 -46.2,-24.62 -98.57,-41.82 -147.56,-14.96l18.89 17.97c29.4,5.2 38.58,-4.9 79.73,20.84 106.62,66.7 172.28,128.68 104.01,239.18 -51.37,83.14 -106.59,55.47 -189.47,25.1 -59.43,-21.77 -131.28,-51.97 -186.38,-77.65 -267.42,-124.66 -223.41,-165.11 -327.2,-208.7 -99.7,-41.87 -91.17,-35.99 -141.37,-130.19 -17.17,-32.22 -72.25,-153.98 -63.68,-182.58 43.53,72.26 57.01,146.58 115.17,207.44 31.58,33.03 118.48,114.2 176,113.37 24.43,-0.36 13.6,1.15 27.01,-7.82 -24.32,-38.38 -33.08,-8.47 -90.43,-65.11 -91.39,-90.27 -167.59,-172.25 -162,-304.53zm1535.6 115.58c-111.92,29.25 -198.73,11.18 -313.7,-12.06 -78.25,-15.8 -83.74,2.6 -112.86,-65.72 -15.41,-36.18 -43.5,-81.29 -51.35,-124.28l416.52 58.24c17.61,52.02 50.23,102.17 61.39,143.82zm-1048.76 -283.31c204.3,-19.84 154.06,-155.59 243.19,-2.6 45.43,77.99 93.05,160.71 132.38,249.31 -51.83,2.42 -146.57,23.27 -170.67,19.2 -57.02,-9.64 -116.4,-23.21 -172.12,-31.83 7.99,-107.04 -24.92,-138.32 -32.78,-234.07zm883.33 531.26c65.17,18.27 90.11,9.16 106.67,48.64 -74.61,40.86 -199.01,-22.4 -255.49,-53.13 -78.41,-42.65 -114.91,-89.57 -160.58,-162.54 -39.95,-63.85 -201.16,-361.84 -216.07,-420.43 57.03,7.09 45.87,41.41 77.56,82.64 117.8,153.36 165.25,378.25 325.31,466.08 40.2,22.06 77.32,26.04 122.62,38.74zm602.72 -653.82c25.61,17.62 44.4,35.87 71.09,54.14 32.16,-12.28 0.58,-0.69 19.38,-13.13 89.3,-59.06 90.73,-26.4 145.28,-7.59l22.68 -51.93c24.31,23.54 43.78,82.4 50.14,124.61 -185.03,5.12 -390.22,-46.45 -580.95,-51l0.73 -143.09c53.01,28.36 33.87,78.71 96.17,86.37 27.22,-27.16 7.11,-18.92 25.51,-49.14 50.07,32.22 65.23,85.81 136.04,103.86l13.93 -53.1zm1273.32 39.05c1.83,-48.21 -20.82,-65.9 1.57,-105.24 10.54,-18.53 10.68,-15.95 20.52,-25.73 40.27,16.39 51.32,73.54 65.4,133.57 34.21,145.81 -1.66,187.74 -117.56,144.64 0.91,-53.2 27.98,-91.84 30.07,-147.24zm252.88 225.08c-20.3,1 -39.09,10.7 -64.45,15.94 10.48,-74.34 12.95,-141.46 21.29,-215.31 6.62,-58.48 24.12,-49.25 -1.72,-83.5 -19.7,-26.12 -26.92,-33.73 -36.57,-78.4 58.58,-36.13 118.51,-28.06 161.12,12.79 65.26,62.58 48.26,40.26 148.66,10.2 74.12,72.43 30.55,72.1 155.86,60.52 55.03,123.15 -12.62,198.16 -32.7,329.69l-63.51 -3.7c9.49,-90.14 27.66,-152.14 11.27,-243.66 -91.75,26.15 -33.92,134.09 -69.76,245.09 -67.21,-26.82 -47.28,-31.86 -137.85,-28.25 12.78,-76.18 54.13,-187.31 9.17,-255.35 -58.93,18.71 -20.4,125.49 -39.7,233.99 -33.4,12.11 -27.38,-1.71 -61.1,-0.06zm-2681.44 -301.22c-30.28,4.62 -61.58,4.35 -92.2,1.11 -34.12,-3.62 -187.15,-80.56 -127.54,-138.86 56.87,-55.62 208.87,118.61 219.75,137.75zm1695.41 -217.78c117.77,-11.93 298.22,-19.96 415.49,-12.4 150.53,9.69 229.35,19.33 312.84,108.89 -11.41,32.68 -39.72,63.76 -64.51,94.28 -88.04,-31.05 -119.82,-27.67 -159.01,47.28l-13.13 19.35c-123.15,-33.19 -230.37,19.29 -318.86,91.9 -96.82,79.44 -16.99,74.31 -189.92,52.92 8.22,-89.04 7.91,-61.63 -32.34,-108.34 59.01,-135.49 42.82,-196.29 49.44,-293.89zm-2964.61 -63.42c9.76,-36.69 -2.86,-5.77 19.73,-35.54 10.09,-13.32 9.98,-15.83 26.63,-24.63 12.88,-6.78 62.22,-19.03 78.4,-23.58 219.73,-61.7 155.11,-5.62 233.92,-54.68 24.25,-15.1 50.46,-16.28 81.46,-8 126.69,33.86 30.6,27.12 142.38,-10.21 178.75,90.85 64.95,337.79 110.98,496.76 3.3,11.43 8.02,21.43 8.82,34.99l-7.02 36.61c-32.63,29.89 -68.23,-29.92 -94.3,-64.49 -20.69,-27.44 -56.06,-60.25 -60.85,-100.29 -7.71,-64.31 -4.35,-158.6 -29.92,-225.64 -11.65,-30.54 -12.18,-32.57 -38.24,-37.76 -35.81,47.68 -7.2,150.88 -8.13,212.41 -0.44,29.68 -6.22,77.34 -19.21,100.13 -18.11,31.75 -39.81,25.45 -76.46,19.83 -55.95,-154.92 0.21,-223.75 -57.74,-278.11 -61.21,49.05 -17.26,200.75 -40.51,269.61 -69.32,16.67 -90.03,-42.7 -95.84,-112.5 -6.27,-75.24 28.46,-148.88 -42.2,-170.05 -76.91,76.72 91.12,340.04 -99.89,286.93 -30.19,-80.3 -29.59,-218.6 -32.01,-311.78zm2206.86 -203.14c6.41,-30.57 2.43,-22.32 60.75,-50.39 26.85,-12.92 44.25,-20.01 71.69,-29.92 194.99,-70.43 394.38,-1.16 435.74,131.45 9.21,29.52 8.22,61.76 0.2,91.61 -19.84,73.85 -68.17,45.8 -230.04,75.65 -81.32,15 -282.09,65.9 -344.06,67.8 -30.68,-120.26 26.63,-238.83 118.6,-284.38 41.92,-20.77 72.37,-7.56 83.72,-53.87 -68.25,-33.6 -129.43,54.26 -196.61,52.06zm2346.21 872.56l0 -144.84 -24.07 -24.39c-26.82,-19.92 -53.12,-15.51 -78.34,-24.14 -79.11,-27.09 -6.01,-252.63 -203.67,-211.66 -22.91,-27.12 -35.75,-54.77 -85.68,-60.79 -83.24,-10.04 -41.48,32.13 -106.86,-19.31 -78.85,-62.05 -128.59,-45.78 -208.46,-7.1 -45.53,-72.14 -66.11,-104.4 -138.02,-148.45 -208.67,-127.81 -520.28,-53.07 -759.77,-65.91 -45.82,-121.43 -130.37,-193.96 -234.29,-249.46 -35.05,-18.72 -76.6,-28.86 -105.14,-45.09l-261.33 0c-41.59,26.3 -96.76,39.98 -146.41,71.09 -306.39,191.93 -199.29,326.72 -256.06,405.25 -56.23,37.13 -202.25,71.77 -275.14,92.84 -105.61,30.55 -193.81,50.69 -313.61,46.76l-15.39 -21.88c-39.69,-57.49 -59.29,-68.14 -125.87,-104.17 -255.11,-138.02 -143.85,-121.38 -196.33,-194.53 -14.1,-19.65 -63.39,-32.3 -92.64,-27.35 -78.32,13.26 -48.31,119.31 -122.42,131.01 -17,-24.98 -22.24,-50.78 -39.29,-78.97 -15.05,-24.84 -30.07,-44.7 -45.45,-65.04 -126.64,-167.63 -80.53,-114.12 -223.08,-104.1 -49.84,3.51 -60.78,-18.99 -94.42,-31.35 -76.92,66.63 -123.84,23.75 -191.53,33.58 -19.02,2.76 -116.47,65.07 -157.91,81.32 -89.52,35.11 -86.78,16.96 -111.12,127.54 -14.5,65.9 -71.42,90.11 -57.26,182.02 16.69,108.37 140.1,211.99 231.42,247.32 123.76,47.88 62.59,6.97 181.32,294.55 61.93,150.01 83.86,209.64 194.36,290.57 91.33,66.88 178.88,133.1 280.07,195.96 228.82,142.15 228,66.62 297.26,179.23 83.89,136.41 51.68,163.49 170.74,188.1 53.04,10.96 63.57,-4.91 100.02,-18.66 36.54,125.01 101,217.41 61.55,300.76 -35.79,75.6 -114.35,156.42 -176.56,214.43 -153.39,143.05 -115.91,161.6 -111.84,260.15 11.8,285.37 -115.57,705.84 -193.67,974.11 -40.39,138.75 -43.61,179.07 -117.3,273.73 -45.78,58.79 -126.46,148.83 -136.81,246.84 -119.85,-4.56 -233.91,-19.7 -353.62,-21.68 -61.49,-1.02 -114.55,-10.59 -143.52,33.7 -42.79,65.41 -44.27,250.59 -24.15,310.95 17.67,53.01 56.27,53.28 117.18,62.03 103.65,14.88 223.34,22.71 330.65,29.39 -4.11,77.97 -33.06,-7.09 30.77,110.45 19.03,35.04 33.1,74.02 47.48,114.26 114.84,321.35 139.54,139.26 193.31,291.09 40.76,115.09 138.2,193.77 266.27,210.53 7.73,36.41 -15.95,281.73 -19.36,341.62 -6.72,118.16 -11.28,236.55 -11.95,357.48 -1.5,267.73 20.15,547.93 152.82,769.66 60.88,101.75 319.11,114.05 416.81,42.99 88.32,-64.24 139.53,-422.13 188.58,-541.65 0.3,233.93 -21.74,450.75 3.67,686.77 7.09,65.96 45.91,229.81 79.16,271.68 25.97,32.71 101.34,39.02 145.3,25.01 49.3,-15.72 55.35,-42.89 75.58,-93.98 69.06,-174.41 93.96,-376.75 123.15,-574.1 13.14,-88.89 55.25,-588.22 77.3,-620.3 61.9,-17.2 120.5,9.45 170.04,-25.95 38.48,-93.1 -65.89,-153.06 -58.88,-261.67 104.87,14.83 64.14,74.85 105.12,113.65 37.3,35.32 517.32,50.74 608.1,37.63 24.91,-146.53 75.17,-255.37 76.21,-416.73 0.24,-38.22 -13.45,-120.53 -4.68,-149.63 26.66,-88.43 252.8,-282.21 207.42,-426.68 -38.47,-122.49 -56.08,-137.08 -14.8,-265.67 118.1,-367.89 283.07,-850.67 444.89,-1188.07 27.39,-57.11 102.36,-172.96 105.94,-227.15 16.88,-256.18 -96.63,-553.53 -268.03,-705.38 -245.17,-217.19 -400.61,-101.19 -483.71,-109.48 5.78,-74.76 55.87,-235.32 91.29,-285.17 171.24,-14.39 255.24,-69.8 341.74,-161.52 100.31,-106.35 128.58,-145.73 217.75,-275.5 65.52,-95.34 20.81,-71.02 137.8,-108.53 183.89,-58.97 322.94,-163.39 356.61,-383.78 150.61,27.85 133.9,-101.89 160.77,-156.19z"/>
 </g>
</svg>
